<?xml version="1.0" encoding="UTF-8" standalone="no"?>
<svg
   xmlns:dc="http://purl.org/dc/elements/1.1/"
   xmlns:cc="http://creativecommons.org/ns#"
   xmlns:rdf="http://www.w3.org/1999/02/22-rdf-syntax-ns#"
   xmlns:svg="http://www.w3.org/2000/svg"
   xmlns="http://www.w3.org/2000/svg"
   xmlns:sodipodi="http://sodipodi.sourceforge.net/DTD/sodipodi-0.dtd"
   xmlns:inkscape="http://www.inkscape.org/namespaces/inkscape"
   version="1.1"
   x="0px"
   y="0px"
   width="158.65858"
   height="310.31281"
   viewBox="0 0 158.65858 310.31281"
   xml:space="preserve"
   id="svg3328"
   inkscape:version="0.48.4 r9939"
   sodipodi:docname="muscles.svg"><metadata
   id="metadata3669"><rdf:RDF><cc:Work
       rdf:about=""><dc:format>image/svg+xml</dc:format><dc:type
         rdf:resource="http://purl.org/dc/dcmitype/StillImage" /><dc:title></dc:title></cc:Work></rdf:RDF></metadata><defs
   id="defs3667">
	
	
	
	

	
	
	
	
	
	

		
		
			
		
	</defs><sodipodi:namedview
   pagecolor="#ffffff"
   bordercolor="#666666"
   borderopacity="1"
   objecttolerance="10"
   gridtolerance="10"
   guidetolerance="10"
   inkscape:pageopacity="0"
   inkscape:pageshadow="2"
   inkscape:window-width="1600"
   inkscape:window-height="837"
   id="namedview3665"
   showgrid="false"
   fit-margin-top="10"
   fit-margin-left="10"
   fit-margin-right="10"
   fit-margin-bottom="10"
   inkscape:zoom="2.1311475"
   inkscape:cx="90.799431"
   inkscape:cy="152.91176"
   inkscape:window-x="1912"
   inkscape:window-y="66"
   inkscape:window-maximized="1"
   inkscape:current-layer="svg3328" />

	 <script
   type="text/ecmascript"
   id="script3330">

  </script>

<g
   id="male-front"
   style="fill:#3f903f;fill-opacity:1"
   transform="translate(-3.0005687,4.9010457)">
	<g
   id="other-front"
   style="fill:#3f903f;fill-opacity:1">
		<g
   id="g3334"
   style="fill:#3f903f;fill-opacity:1">
			<path
   d="m 93.959,29.097 c 0,0 1.484,-6.333 1.829,-6.963 0.233,-0.428 1.126,0.389 1.322,0.622 0.195,0.233 0.816,0.856 0.545,1.323 -0.273,0.466 -2.295,5.367 -2.801,5.522 -0.506,0.157 -0.974,-0.076 -0.895,-0.504 z"
   id="path3336"
   inkscape:connector-curvature="0"
   style="fill:#3f903f;fill-opacity:1" />
			<path
   d="m 94.059,24.233 c 1.662,-6.076 -0.681,-12.484 -1.355,-13.107 -0.099,-0.091 -3.11,-5.564 -9.819,-6.024 -0.049,-0.003 -1.042,-0.005 -1.09,0 -6.799,0.592 -9.356,5.465 -9.77,6.003 -0.016,0.009 -0.033,0.006 -0.049,0.021 -0.695,0.643 -3.15,7.432 -1.176,13.668 0.083,1.104 0.228,2.254 0.461,3.466 0.005,0.029 0.035,0.104 0.08,0.208 0.026,0.141 0.06,0.308 0.114,0.542 0.295,1.294 0.485,6.359 0.793,7.243 0.317,0.91 3.581,2.625 5.597,3.404 0.878,0.416 2.316,0.876 2.729,0.946 0.18,0.031 1.077,0.194 1.724,0.214 0.645,-0.02 1.314,-0.245 1.49,-0.296 0.341,-0.099 1.219,-0.291 1.978,-0.511 1.573,-0.37 6.283,-2.656 6.667,-3.758 0.311,-0.884 0.498,-5.949 0.795,-7.243 0.159,-0.695 0.18,-0.923 0.152,-0.983 0.294,-1.34 0.519,-2.604 0.679,-3.793 z"
   id="path3338"
   inkscape:connector-curvature="0"
   style="fill:#3f903f;fill-opacity:1" />
			<path
   d="m 91.433,40.104 c -0.274,0.739 -2.64,2.977 -4.211,5.465 -1.751,2.771 -2.907,6.667 -2.907,6.67 -0.154,0.778 -0.253,0.361 -0.215,0.011 0.538,-4.863 1.778,-6.782 3.714,-9.267 1.517,-1.946 3.346,-4.201 3.151,-4.046 -0.624,0.497 -4.099,1.918 -4.277,2.256 -4.289,8.109 -3.488,13.12 -3.073,12.991 0.31,-0.097 1.438,-0.592 2.323,-1.38 2.878,-2.567 5.455,-6.671 5.843,-7.76 0.174,-0.489 -0.155,-3.307 -0.348,-4.94 z"
   id="path3340"
   inkscape:connector-curvature="0"
   style="fill:#3f903f;fill-opacity:1" />
			<path
   d="m 85.946,54.301 c 0,0 5.25,-4.94 6.262,-7.74 0.155,-0.428 0.428,-0.544 0.855,-0.272 0.429,0.272 7.213,3.486 8.051,3.656 0.196,0.039 -3.148,2.567 -7.815,3.345 -4.892,0.814 -9.297,3.073 -7.353,1.011 z"
   id="path3342"
   inkscape:connector-curvature="0"
   style="fill:#3f903f;fill-opacity:1" />
			<path
   d="m 106.211,74.994 c -0.079,-0.156 1.246,-1.363 1.518,-1.091 0.273,0.273 1.537,6.05 -0.389,17.076 -0.054,0.315 -0.233,-0.942 -0.195,-1.478 0.081,-1.126 0.154,-11.707 -0.934,-14.507 z"
   id="path3344"
   inkscape:connector-curvature="0"
   style="fill:#3f903f;fill-opacity:1" />
			<path
   d="m 109.243,80.455 c -0.19,1.262 3.286,13.819 5.562,14.834 0.44,0.194 -2.389,-8.736 -2.634,-10.15 -0.244,-1.416 -2.343,-8.59 -2.928,-4.684 z"
   id="path3346"
   inkscape:connector-curvature="0"
   style="fill:#3f903f;fill-opacity:1" />
			<path
   d="m 130.289,129.368 c 0.201,0.729 1.438,9.529 0.622,11.863 -0.475,1.358 -0.869,2.767 -0.855,3.89 0.021,1.732 2.068,5.133 4.316,6.69 1.516,1.05 2.723,1.517 2.683,1.399 -0.303,-0.902 -2.801,-2.605 -2.372,-6.3 0.257,-2.213 0.882,-4.301 0.74,-5.329 -1.167,-8.363 -5.642,-14.041 -5.134,-12.213 z"
   id="path3348"
   inkscape:connector-curvature="0"
   style="fill:#3f903f;fill-opacity:1" />
			<path
   d="m 138.728,135.241 c -2.828,-0.315 -4.315,-2.36 -5.99,-4.24 0,0 1.907,2.411 2.762,5.601 0.855,3.19 1.829,7.235 3.851,6.496 2.022,-0.739 2.091,-2.206 7.352,-1.322 0.232,0.04 -2.028,-2.484 -3.579,-3.929 -1.609,-1.495 -2.995,-2.45 -4.396,-2.606 z"
   id="path3350"
   inkscape:connector-curvature="0"
   style="fill:#3f903f;fill-opacity:1" />
			<path
   d="m 136.862,133.568 c -0.274,0.039 -5.797,-5.133 -6.69,-7.039 -0.896,-1.907 -1.267,-4.58 -0.857,-3.89 3.267,5.484 7.789,10.895 7.547,10.929 z"
   id="path3352"
   inkscape:connector-curvature="0"
   style="fill:#3f903f;fill-opacity:1" />
			<path
   d="m 142.541,142.63 c 0.1,-0.255 3.072,-0.312 4.083,0 1.01,0.312 4.676,2.107 4.938,2.179 0.43,0.116 -0.623,1.982 -2.062,1.905 -1.438,-0.078 -3.46,-0.933 -4.317,-0.894 -0.855,0.038 -2.721,-2.995 -2.642,-3.19 z"
   id="path3354"
   inkscape:connector-curvature="0"
   style="fill:#3f903f;fill-opacity:1" />
			<path
   d="m 135.656,148.193 c -0.106,-1.478 0.504,-5.446 1.321,-4.784 0.321,0.26 1.356,1.247 4.24,-0.195 0.467,-0.234 1.559,1.805 1.672,2.373 0.117,0.584 -1.623,0.298 -2.256,1.945 -0.971,2.529 -1.87,4.18 -2.333,4.55 -0.36,0.288 -2.477,-1.509 -2.644,-3.889 z"
   id="path3356"
   inkscape:connector-curvature="0"
   style="fill:#3f903f;fill-opacity:1" />
			<path
   d="m 134.721,153.133 c 0,0 3.58,6.739 4.396,6.934 0.817,0.193 1.06,-0.213 0.788,-0.759 -0.272,-0.545 -2.372,-4.822 -2.683,-4.901 -0.314,-0.078 -2.656,-1.858 -2.501,-1.274 z"
   id="path3358"
   inkscape:connector-curvature="0"
   style="fill:#3f903f;fill-opacity:1" />
			<path
   d="m 140.633,158.228 c 0.802,1.604 1.225,2.966 1.809,3.647 0.505,0.588 1.809,0.642 1.925,0.408 0.116,-0.234 0.312,-0.632 0.039,-1.06 -0.214,-0.337 -3.831,-8.45 -4.911,-9.297 -0.276,-0.217 -1.153,1.006 -1.273,1.283 -0.117,0.274 1.259,2.711 2.411,5.019 z"
   id="path3360"
   inkscape:connector-curvature="0"
   style="fill:#3f903f;fill-opacity:1" />
			<path
   d="m 141.217,148.514 c -0.417,0.415 -1.081,2.021 -1.139,2.333 -0.026,0.154 2.13,3.938 2.859,5.28 0.507,0.933 2.525,5.197 2.917,5.572 0.641,0.611 1.896,1.225 2.246,-0.497 0.142,-0.684 -6.679,-12.891 -6.883,-12.688 z"
   id="path3362"
   inkscape:connector-curvature="0"
   style="fill:#3f903f;fill-opacity:1" />
			<path
   d="m 143.375,146.502 c -0.292,-0.35 -1.885,0.603 -1.537,1.458 0.193,0.473 4.901,8.595 5.484,9.334 0.583,0.738 1.012,1.779 1.634,1.05 0.435,-0.509 0.41,-1.609 -2.1,-5.716 -0.855,-1.401 -2.653,-5.13 -3.481,-6.126 z"
   id="path3364"
   inkscape:connector-curvature="0"
   style="fill:#3f903f;fill-opacity:1" />
			<path
   d="m 105.591,95.636 c -0.064,0.367 -1.898,-6.003 -3.92,-9.556 -2.022,-3.553 -2.732,-5.715 -2.512,-6.617 0.286,-1.163 6.125,-4.716 6.372,-3.675 0.244,1.043 1.407,12.13 0.06,19.848 z"
   id="path3366"
   inkscape:connector-curvature="0"
   style="fill:#3f903f;fill-opacity:1" />
			<path
   d="m 104.063,103.529 c -0.257,0.321 -0.192,-2.638 -3.087,-5.532 -1.61,-1.608 -4.116,-4.117 -4.567,-5.661 -0.451,-1.543 -2.677,-11.525 -2.443,-12.221 0.191,-0.578 0.814,-0.92 1.049,-0.964 0.574,-0.105 1.908,-0.194 2.423,0.899 0.515,1.094 4.309,8.426 5.403,10.486 1.094,2.058 3.809,9.761 1.222,12.993 z"
   id="path3368"
   inkscape:connector-curvature="0"
   style="fill:#3f903f;fill-opacity:1" />
			<path
   d="m 73.229,40.104 c 0.272,0.739 2.639,2.977 4.211,5.465 1.75,2.771 2.906,6.667 2.908,6.67 0.152,0.778 0.251,0.361 0.213,0.011 -0.538,-4.863 -1.776,-6.782 -3.714,-9.267 -1.517,-1.946 -3.346,-4.201 -3.151,-4.046 0.624,0.497 4.099,1.918 4.277,2.256 4.289,8.109 3.488,13.12 3.074,12.991 -0.312,-0.097 -1.44,-0.592 -2.324,-1.38 -2.878,-2.567 -5.455,-6.671 -5.844,-7.76 -0.175,-0.489 0.155,-3.307 0.35,-4.94 z"
   id="path3370"
   inkscape:connector-curvature="0"
   style="fill:#3f903f;fill-opacity:1" />
			<path
   d="m 78.713,54.301 c 0,0 -5.25,-4.94 -6.263,-7.74 -0.155,-0.428 -0.427,-0.544 -0.854,-0.272 -0.429,0.272 -7.212,3.486 -8.052,3.656 -0.195,0.039 3.149,2.567 7.817,3.345 4.891,0.814 9.298,3.073 7.352,1.011 z"
   id="path3372"
   inkscape:connector-curvature="0"
   style="fill:#3f903f;fill-opacity:1" />
			<path
   d="m 58.449,74.994 c 0.078,-0.156 -1.245,-1.363 -1.517,-1.091 -0.272,0.273 -1.537,6.05 0.388,17.076 0.056,0.315 0.235,-0.942 0.195,-1.478 -0.082,-1.126 -0.155,-11.707 0.934,-14.507 z"
   id="path3374"
   inkscape:connector-curvature="0"
   style="fill:#3f903f;fill-opacity:1" />
			<path
   d="m 55.417,80.455 c 0.189,1.262 -3.285,13.819 -5.562,14.834 -0.439,0.194 2.392,-8.736 2.634,-10.15 0.244,-1.416 2.343,-8.59 2.928,-4.684 z"
   id="path3376"
   inkscape:connector-curvature="0"
   style="fill:#3f903f;fill-opacity:1" />
			<path
   d="m 34.372,129.368 c -0.202,0.729 -1.439,9.529 -0.623,11.863 0.476,1.358 0.871,2.767 0.856,3.89 -0.022,1.732 -2.068,5.133 -4.316,6.69 -1.517,1.05 -2.724,1.517 -2.684,1.399 0.303,-0.902 2.801,-2.605 2.372,-6.3 -0.256,-2.213 -0.882,-4.301 -0.739,-5.329 1.167,-8.363 5.64,-14.041 5.134,-12.213 z"
   id="path3378"
   inkscape:connector-curvature="0"
   style="fill:#3f903f;fill-opacity:1" />
			<path
   d="m 25.932,135.241 c 2.828,-0.315 4.316,-2.36 5.991,-4.24 0,0 -1.907,2.411 -2.763,5.601 -0.855,3.19 -1.829,7.235 -3.85,6.496 -2.022,-0.739 -2.091,-2.206 -7.351,-1.322 -0.234,0.04 2.027,-2.484 3.579,-3.929 1.608,-1.495 2.993,-2.45 4.394,-2.606 z"
   id="path3380"
   inkscape:connector-curvature="0"
   style="fill:#3f903f;fill-opacity:1" />
			<path
   d="m 27.798,133.568 c 0.273,0.039 5.796,-5.133 6.69,-7.039 0.894,-1.907 1.266,-4.58 0.856,-3.89 -3.266,5.484 -7.788,10.895 -7.546,10.929 z"
   id="path3382"
   inkscape:connector-curvature="0"
   style="fill:#3f903f;fill-opacity:1" />
			<path
   d="m 22.121,142.63 c -0.101,-0.255 -3.073,-0.312 -4.084,0 -1.011,0.312 -4.678,2.107 -4.94,2.179 -0.428,0.116 0.624,1.982 2.062,1.905 1.438,-0.078 3.461,-0.933 4.317,-0.894 0.856,0.038 2.722,-2.995 2.645,-3.19 z"
   id="path3384"
   inkscape:connector-curvature="0"
   style="fill:#3f903f;fill-opacity:1" />
			<path
   d="m 29.004,148.193 c 0.105,-1.478 -0.506,-5.446 -1.323,-4.784 -0.32,0.26 -1.355,1.247 -4.238,-0.195 -0.467,-0.234 -1.56,1.805 -1.673,2.373 -0.116,0.584 1.624,0.298 2.256,1.945 0.972,2.529 1.871,4.18 2.334,4.55 0.36,0.288 2.476,-1.509 2.644,-3.889 z"
   id="path3386"
   inkscape:connector-curvature="0"
   style="fill:#3f903f;fill-opacity:1" />
			<path
   d="m 29.939,153.133 c 0,0 -3.579,6.739 -4.396,6.934 -0.817,0.193 -1.06,-0.213 -0.788,-0.759 0.272,-0.545 2.372,-4.822 2.684,-4.901 0.312,-0.078 2.655,-1.858 2.5,-1.274 z"
   id="path3388"
   inkscape:connector-curvature="0"
   style="fill:#3f903f;fill-opacity:1" />
			<path
   d="m 24.026,158.228 c -0.802,1.604 -1.225,2.966 -1.809,3.647 -0.505,0.588 -1.809,0.642 -1.925,0.408 -0.116,-0.234 -0.311,-0.632 -0.038,-1.06 0.213,-0.337 3.83,-8.45 4.909,-9.297 0.278,-0.217 1.155,1.006 1.275,1.283 0.117,0.274 -1.258,2.711 -2.412,5.019 z"
   id="path3390"
   inkscape:connector-curvature="0"
   style="fill:#3f903f;fill-opacity:1" />
			<path
   d="m 23.443,148.514 c 0.415,0.415 1.081,2.021 1.137,2.333 0.029,0.154 -2.129,3.938 -2.858,5.28 -0.507,0.933 -2.525,5.197 -2.918,5.572 -0.641,0.611 -1.896,1.225 -2.246,-0.497 -0.139,-0.684 6.681,-12.891 6.885,-12.688 z"
   id="path3392"
   inkscape:connector-curvature="0"
   style="fill:#3f903f;fill-opacity:1" />
			<path
   d="m 21.284,146.502 c 0.292,-0.35 1.886,0.603 1.537,1.458 -0.193,0.473 -4.901,8.595 -5.484,9.334 -0.583,0.738 -1.012,1.779 -1.634,1.05 -0.435,-0.509 -0.41,-1.609 2.1,-5.716 0.856,-1.401 2.654,-5.13 3.481,-6.126 z"
   id="path3394"
   inkscape:connector-curvature="0"
   style="fill:#3f903f;fill-opacity:1" />
			<path
   d="m 59.068,95.636 c 0.064,0.367 1.898,-6.003 3.92,-9.556 2.022,-3.553 2.732,-5.715 2.512,-6.617 -0.287,-1.163 -6.126,-4.716 -6.372,-3.675 -0.244,1.043 -1.407,12.13 -0.06,19.848 z"
   id="path3396"
   inkscape:connector-curvature="0"
   style="fill:#3f903f;fill-opacity:1" />
			<path
   d="m 60.596,103.529 c 0.257,0.321 0.192,-2.638 3.087,-5.532 1.61,-1.608 4.117,-4.117 4.567,-5.661 0.45,-1.543 2.677,-11.525 2.444,-12.221 -0.193,-0.578 -0.815,-0.92 -1.05,-0.964 -0.574,-0.105 -1.908,-0.194 -2.423,0.899 -0.514,1.094 -4.309,8.426 -5.404,10.486 -1.093,2.058 -3.808,9.761 -1.221,12.993 z"
   id="path3398"
   inkscape:connector-curvature="0"
   style="fill:#3f903f;fill-opacity:1" />
			<path
   d="m 82.331,79.7 c -0.507,0 -2.761,-3.484 -2.644,-3.734 0.27,-0.585 2.099,-3.579 2.624,-3.579 0.524,0 2.284,2.907 2.625,3.579 0.124,0.245 -2.101,3.734 -2.605,3.734 z"
   id="path3400"
   inkscape:connector-curvature="0"
   style="fill:#3f903f;fill-opacity:1" />
			<path
   d="m 82.313,61.029 c 0,0 -0.568,-2.865 -2.194,-4.493 -0.262,-0.262 -0.671,-1.021 0.555,-0.554 0.587,0.224 1.64,0.292 1.64,0.292 0,0 1.053,-0.068 1.64,-0.292 1.226,-0.466 0.816,0.292 0.555,0.554 -1.627,1.628 -2.196,4.493 -2.196,4.493 z"
   id="path3402"
   inkscape:connector-curvature="0"
   style="fill:#3f903f;fill-opacity:1" />
			<path
   d="m 82.313,41.805 c -0.993,0 -3.39,-0.496 -3.273,-0.291 0,0 2.485,4.966 2.771,9.539 0.029,0.467 0.356,0.992 0.502,1.021 0.146,-0.029 0.474,-0.554 0.503,-1.021 0.286,-4.573 2.771,-9.539 2.771,-9.539 0.116,-0.204 -2.282,0.291 -3.274,0.291 z"
   id="path3404"
   inkscape:connector-curvature="0"
   style="fill:#3f903f;fill-opacity:1" />
			<path
   d="m 104.889,123.573 c -0.079,-0.7 -2.101,14.002 -1.867,18.67 0.233,4.667 0.738,26.72 0.078,32.36 0,0 1.61,-6.724 2.801,-16.957 1.167,-10.036 1.167,-19.604 0.543,-23.261 -0.622,-3.656 -1.476,-10.112 -1.555,-10.812 z"
   id="path3406"
   inkscape:connector-curvature="0"
   style="fill:#3f903f;fill-opacity:1" />
			<path
   d="m 90.634,234.832 c -0.182,-1.002 -2.276,-18.728 -2.684,-19.603 -0.408,-0.876 -0.875,-3.968 -0.583,-6.769 0.292,-2.8 0.874,-8.809 2.586,-12.231 1.099,-2.199 3.947,11.94 3.656,17.25 -0.292,5.309 -2.626,23.279 -2.975,21.353 z"
   id="path3408"
   inkscape:connector-curvature="0"
   style="fill:#3f903f;fill-opacity:1" />
			<path
   d="m 84.227,268.23 c 1.194,-1.277 4.563,-4.221 5.758,-5.499 1.192,-1.278 1.895,-3.069 2.247,-3.006 0.35,0.062 0.912,4.413 -0.491,6.268 -1.406,1.854 -4.284,3.836 -5.407,5.179 -1.123,1.345 -2.215,6.263 -2.421,6.188 -0.494,-0.176 -0.507,-8.251 0.314,-9.13 z"
   id="path3410"
   inkscape:connector-curvature="0"
   style="fill:#3f903f;fill-opacity:1" />
			<path
   d="m 83.737,288.315 c 0,0 -0.371,-7.592 0.352,-8.954 0.72,-1.363 1.533,-5.755 3.711,-7.674 2.369,-2.084 3.826,-4.005 3.992,-3.805 0.166,0.202 -0.923,2.693 1.146,9.695 0.246,0.833 -2.532,2.995 -3.418,3.651 -0.889,0.658 -5.34,4.563 -5.783,7.087 z"
   id="path3412"
   inkscape:connector-curvature="0"
   style="fill:#3f903f;fill-opacity:1" />
			<path
   d="m 83.652,292.254 c 0,0 -0.35,2.196 -0.117,2.729 0.234,0.53 1.828,0.461 1.945,0.354 0.116,-0.104 1.79,-0.532 1.75,-1.311 -0.016,-0.335 0.028,-1.377 -0.154,-2.48 -0.053,-0.323 -0.203,-1.057 -0.272,-1.381 -0.243,-1.135 -0.291,-2.034 -0.271,-2.41 0.039,-0.85 0,-2.266 0,-2.266 0,0 -2.53,2.515 -2.957,5.313 -0.085,0.554 -0.078,0.991 0.076,1.452 z"
   id="path3414"
   inkscape:connector-curvature="0"
   style="fill:#3f903f;fill-opacity:1" />
			<path
   d="m 87.583,285.314 c -0.056,0.307 0,2.357 0.148,2.795 0.149,0.438 0.704,2.928 0.74,3.567 0.036,0.639 1.587,0.606 1.773,0.472 0.184,-0.135 0.85,-0.809 0.85,-0.809 0,0 0.789,-0.27 0.962,-0.403 0.256,-0.202 0.331,-0.37 0.331,-0.37 0,0 1.44,-0.606 1.59,-1.649 0,0 1.182,-0.874 1.146,-1.111 -0.039,-0.235 -0.075,-0.572 -0.148,-1.145 -0.075,-0.57 0.036,-0.84 0.111,-1.581 0.073,-0.74 -1.516,-6.058 -1.773,-6.462 -0.371,3.097 -5.285,4.308 -5.73,6.696 z"
   id="path3416"
   inkscape:connector-curvature="0"
   style="fill:#3f903f;fill-opacity:1" />
			<path
   d="m 59.75,123.573 c 0.078,-0.7 2.1,14.002 1.867,18.67 -0.233,4.667 -0.739,26.72 -0.077,32.36 0,0 -1.611,-6.724 -2.801,-16.957 -1.167,-10.036 -1.167,-19.604 -0.544,-23.261 0.623,-3.656 1.477,-10.112 1.555,-10.812 z"
   id="path3418"
   inkscape:connector-curvature="0"
   style="fill:#3f903f;fill-opacity:1" />
			<path
   d="m 74.006,234.832 c 0.183,-1.002 2.275,-18.728 2.684,-19.603 0.408,-0.876 0.875,-3.968 0.583,-6.769 -0.292,-2.8 -0.875,-8.809 -2.587,-12.231 -1.099,-2.199 -3.947,11.94 -3.655,17.25 0.291,5.309 2.625,23.279 2.975,21.353 z"
   id="path3420"
   inkscape:connector-curvature="0"
   style="fill:#3f903f;fill-opacity:1" />
			<path
   d="m 80.413,268.23 c -1.192,-1.277 -4.563,-4.221 -5.756,-5.499 -1.193,-1.278 -1.896,-3.069 -2.248,-3.006 -0.35,0.062 -0.912,4.413 0.491,6.268 1.405,1.854 4.284,3.836 5.407,5.179 1.123,1.345 2.215,6.263 2.421,6.188 0.492,-0.176 0.505,-8.251 -0.315,-9.13 z"
   id="path3422"
   inkscape:connector-curvature="0"
   style="fill:#3f903f;fill-opacity:1" />
			<path
   d="m 80.903,288.315 c 0,0 0.371,-7.592 -0.349,-8.954 -0.723,-1.363 -1.536,-5.755 -3.714,-7.674 -2.369,-2.084 -3.825,-4.005 -3.991,-3.805 -0.166,0.202 0.923,2.693 -1.146,9.695 -0.247,0.833 2.531,2.995 3.417,3.651 0.888,0.658 5.34,4.563 5.783,7.087 z"
   id="path3424"
   inkscape:connector-curvature="0"
   style="fill:#3f903f;fill-opacity:1" />
			<path
   d="m 80.987,292.254 c 0,0 0.351,2.196 0.117,2.729 -0.233,0.53 -1.828,0.461 -1.944,0.354 -0.116,-0.104 -1.788,-0.532 -1.75,-1.311 0.017,-0.335 -0.028,-1.377 0.155,-2.48 0.055,-0.323 0.202,-1.057 0.271,-1.381 0.243,-1.135 0.29,-2.034 0.273,-2.41 -0.04,-0.85 0,-2.266 0,-2.266 0,0 2.527,2.515 2.956,5.313 0.086,0.554 0.079,0.991 -0.078,1.452 z"
   id="path3426"
   inkscape:connector-curvature="0"
   style="fill:#3f903f;fill-opacity:1" />
			<path
   d="m 77.056,285.314 c 0.057,0.307 0,2.357 -0.147,2.795 -0.148,0.438 -0.703,2.928 -0.741,3.567 -0.036,0.639 -1.588,0.606 -1.772,0.472 -0.185,-0.135 -0.851,-0.809 -0.851,-0.809 0,0 -0.79,-0.27 -0.96,-0.403 -0.258,-0.202 -0.333,-0.37 -0.333,-0.37 0,0 -1.44,-0.606 -1.589,-1.649 0,0 -1.183,-0.874 -1.146,-1.111 0.038,-0.235 0.074,-0.572 0.147,-1.145 0.075,-0.57 -0.036,-0.84 -0.11,-1.581 -0.074,-0.74 1.515,-6.058 1.773,-6.462 0.371,3.097 5.285,4.308 5.729,6.696 z"
   id="path3428"
   inkscape:connector-curvature="0"
   style="fill:#3f903f;fill-opacity:1" />
			<path
   d="m 70.719,29.097 c 0,0 -1.485,-6.333 -1.829,-6.963 -0.233,-0.428 -1.127,0.389 -1.323,0.622 -0.194,0.233 -0.817,0.856 -0.544,1.323 0.273,0.466 2.295,5.367 2.8,5.522 0.508,0.157 0.974,-0.076 0.896,-0.504 z"
   id="path3430"
   inkscape:connector-curvature="0"
   style="fill:#3f903f;fill-opacity:1" />
		</g>
	</g>
	<g
   id="quadriceps-femoris"
   class="group"
   style="fill:#3f903f;fill-opacity:1">
		<path
   d="m 101.777,129.719 c 0.174,-0.618 1.012,-2.255 1.012,-0.777 0,1.478 -0.933,8.713 -0.778,14.002 0.154,5.289 0.701,25.203 -0.545,33.294 -1.244,8.091 -3.811,25.749 -3.656,30.416 0,0 -6.456,-10.189 -7.546,-16.336 -1.089,-6.146 -2.022,-20.458 1.09,-29.871 3.11,-9.413 7.078,-18.826 10.423,-30.728 z"
   id="path3433"
   inkscape:connector-curvature="0"
   style="fill:#3f903f;fill-opacity:1" />
		<path
   d="m 62.862,129.719 c -0.173,-0.618 -1.012,-2.255 -1.012,-0.777 0,1.478 0.934,8.713 0.778,14.002 -0.155,5.289 -0.7,25.203 0.545,33.294 1.243,8.091 3.81,25.749 3.656,30.416 0,0 6.457,-10.189 7.546,-16.336 1.088,-6.146 2.022,-20.458 -1.09,-29.871 -3.11,-9.413 -7.077,-18.826 -10.423,-30.728 z"
   id="path3435"
   inkscape:connector-curvature="0"
   style="fill:#3f903f;fill-opacity:1" />
	</g>
	<g
   id="pectoralis-major"
   class="group"
   style="fill:#3f903f;fill-opacity:1">
		<path
   d="m 83.264,68.732 c -0.015,-0.661 0.077,-4.862 0.311,-6.924 0.233,-2.062 1.367,-3.785 2.723,-4.628 3.189,-1.983 11.94,-4.084 12.836,-4.551 0.892,-0.467 2.955,-1.905 3.538,-1.944 0.583,-0.039 2.451,0.233 2.217,0.467 -0.234,0.233 -2.064,0.729 -3.617,2.411 -0.934,1.011 -0.855,2.179 -0.663,2.645 0.167,0.396 1.946,5.329 4.434,9.374 1.995,3.24 2.256,4.745 1.984,5.445 -0.271,0.7 -6.301,5.814 -10.422,6.69 -4.245,0.901 -7.605,0.351 -9.647,-1.4 -2.042,-1.752 -3.617,-4.046 -3.694,-7.585 z"
   id="path3438"
   inkscape:connector-curvature="0"
   style="fill:#3f903f;fill-opacity:1" />
		<path
   d="M 81.397,68.732 C 81.412,68.071 81.318,63.87 81.085,61.808 80.852,59.746 79.718,58.023 78.363,57.18 75.172,55.197 66.421,53.096 65.527,52.629 c -0.895,-0.467 -2.957,-1.905 -3.54,-1.944 -0.583,-0.039 -2.45,0.233 -2.217,0.467 0.233,0.233 2.063,0.729 3.617,2.411 0.934,1.011 0.856,2.179 0.662,2.645 -0.165,0.396 -1.945,5.329 -4.434,9.374 -1.994,3.24 -2.255,4.745 -1.983,5.445 0.271,0.7 6.301,5.814 10.423,6.69 4.245,0.901 7.605,0.351 9.647,-1.4 2.041,-1.752 3.617,-4.046 3.695,-7.585 z"
   id="path3440"
   inkscape:connector-curvature="0"
   style="fill:#3f903f;fill-opacity:1" />
	</g>
	<g
   id="rectus-adboinis"
   class="group"
   style="fill:#3f903f;fill-opacity:1">
		<path
   d="m 84.041,88.013 c -0.671,-0.059 -1.108,-0.379 -1.167,-0.934 -0.014,-0.145 -0.029,-4.638 0.058,-5.076 0.088,-0.437 2.363,-4.171 2.917,-4.142 0.554,0.029 5.485,1.576 6.448,3.325 0.962,1.751 2.933,10.555 2.246,10.104 -4.167,-2.74 -8.723,-3.123 -10.502,-3.277 z"
   id="path3443"
   inkscape:connector-curvature="0"
   style="fill:#3f903f;fill-opacity:1" />
		<path
   d="m 90.089,99.011 c -1.763,-0.36 -6.476,-0.039 -6.981,-0.322 -0.354,-0.197 -0.583,-7.847 0.175,-8.664 0.45,-0.484 2.821,-0.524 4.2,-0.262 1.342,0.254 6.593,2.042 7.293,4.785 0.72,2.821 0.992,6.854 0.524,6.738 -0.313,-0.078 -1.561,-1.53 -5.211,-2.275 z"
   id="path3445"
   inkscape:connector-curvature="0"
   style="fill:#3f903f;fill-opacity:1" />
		<path
   d="m 82.845,103.969 c 0.058,-0.729 0.175,-3.588 1.225,-3.675 1.049,-0.087 6.474,-0.88 11.201,2.713 0.729,0.554 -1.283,8.81 -3.588,9.13 -2.477,0.344 -6.943,1.75 -7.409,1.925 -0.467,0.175 -1.342,-0.7 -1.312,-1.138 0.029,-0.436 -0.117,-8.955 -0.117,-8.955 z"
   id="path3447"
   inkscape:connector-curvature="0"
   style="fill:#3f903f;fill-opacity:1" />
		<path
   d="m 80.619,88.013 c 0.671,-0.059 1.108,-0.379 1.167,-0.934 0.014,-0.145 0.029,-4.638 -0.059,-5.076 -0.087,-0.437 -2.363,-4.171 -2.917,-4.142 -0.554,0.029 -5.484,1.576 -6.447,3.325 -0.962,1.751 -2.932,10.555 -2.246,10.104 4.167,-2.74 8.724,-3.123 10.502,-3.277 z"
   id="path3449"
   inkscape:connector-curvature="0"
   style="fill:#3f903f;fill-opacity:1" />
		<path
   d="m 74.571,99.011 c 1.763,-0.36 6.476,-0.039 6.981,-0.322 0.354,-0.197 0.583,-7.847 -0.175,-8.664 -0.45,-0.484 -2.821,-0.524 -4.201,-0.262 -1.341,0.254 -6.592,2.042 -7.292,4.785 -0.72,2.821 -0.992,6.854 -0.526,6.738 0.315,-0.078 1.564,-1.53 5.213,-2.275 z"
   id="path3451"
   inkscape:connector-curvature="0"
   style="fill:#3f903f;fill-opacity:1" />
		<path
   d="m 81.814,103.969 c -0.058,-0.729 -0.175,-3.588 -1.225,-3.675 -1.05,-0.087 -6.474,-0.88 -11.202,2.713 -0.729,0.554 1.284,8.81 3.588,9.13 2.478,0.344 6.943,1.75 7.41,1.925 0.466,0.175 1.341,-0.7 1.312,-1.138 -0.029,-0.438 0.117,-8.955 0.117,-8.955 z"
   id="path3453"
   inkscape:connector-curvature="0"
   style="fill:#3f903f;fill-opacity:1" />
		<path
   d="m 82.679,140.57 c 0.662,-0.04 3.151,-1.089 3.696,-1.634 6.187,-6.19 7.546,-21.354 7.585,-22.792 0.039,-1.439 0.428,-2.412 -1.012,-2.879 -1.438,-0.467 -7.74,1.595 -8.907,2.256 -1.167,0.661 -1.399,11.396 -1.399,11.396 l 0.037,13.653 z"
   id="path3455"
   inkscape:connector-curvature="0"
   style="fill:#3f903f;fill-opacity:1" />
		<path
   d="m 82.019,126.917 c 0,0 -0.233,-10.735 -1.4,-11.396 -1.167,-0.661 -7.468,-2.723 -8.906,-2.256 -1.44,0.467 -1.051,1.44 -1.012,2.879 0.039,1.438 1.4,16.602 7.585,22.792 0.545,0.545 3.034,1.594 3.696,1.634 l 0.037,-13.653 z"
   id="path3457"
   inkscape:connector-curvature="0"
   style="fill:#3f903f;fill-opacity:1" />
	</g>
	<g
   id="adbominal-external-oblique"
   class="group"
   style="fill:#3f903f;fill-opacity:1">
		<path
   d="m 96.143,95.683 c 0.059,0.383 3.818,12.026 -2.47,17.133 -0.513,0.414 4.778,0.857 8.596,-7.699 0.19,-0.426 0.333,-1.614 0.123,-2.634 -0.429,-2.083 -6.371,-7.596 -6.249,-6.8 z"
   id="path3460"
   inkscape:connector-curvature="0"
   style="fill:#3f903f;fill-opacity:1" />
		<path
   d="m 91.217,136.875 c -0.582,0.395 -2.976,1.517 -2.45,0.583 0.524,-0.933 6.768,-11.493 6.67,-22.287 -0.007,-0.74 0.389,-1.244 1.126,-1.594 2.454,-1.163 5.117,-4.046 6.458,-7.08 0.333,-0.755 2.372,7.74 1.671,11.941 -0.698,4.201 -5.54,13.069 -13.475,18.437 z"
   id="path3462"
   inkscape:connector-curvature="0"
   style="fill:#3f903f;fill-opacity:1" />
		<path
   d="m 68.516,95.683 c -0.058,0.383 -3.817,12.026 2.471,17.133 0.513,0.414 -4.778,0.857 -8.596,-7.699 -0.19,-0.426 -0.332,-1.614 -0.122,-2.634 0.428,-2.083 6.37,-7.596 6.247,-6.8 z"
   id="path3464"
   inkscape:connector-curvature="0"
   style="fill:#3f903f;fill-opacity:1" />
		<path
   d="m 73.442,136.875 c 0.582,0.395 2.976,1.517 2.451,0.583 -0.525,-0.933 -6.768,-11.493 -6.671,-22.287 0.007,-0.74 -0.389,-1.244 -1.127,-1.594 -2.453,-1.163 -5.116,-4.046 -6.457,-7.08 -0.334,-0.755 -2.372,7.74 -1.672,11.941 0.7,4.201 5.542,13.069 13.476,18.437 z"
   id="path3466"
   inkscape:connector-curvature="0"
   style="fill:#3f903f;fill-opacity:1" />
	</g>
	<g
   id="biceps-branchii"
   class="group"
   style="fill:#3f903f;fill-opacity:1">
		<path
   d="m 112.207,71.13 c -0.998,-0.019 -1.47,0.938 -1.43,1.797 0.058,1.225 0.816,7.391 2.45,12.823 1.634,5.433 3.472,10.088 4.33,11.558 0.858,1.47 5.023,7.024 5.267,8.658 0,0 0.974,-8.282 -0.082,-20.951 -0.53,-6.371 -2.53,-8.944 -3.919,-10.332 -0.821,-0.821 -4.504,-3.514 -6.616,-3.553 z"
   id="path3469"
   inkscape:connector-curvature="0"
   style="fill:#3f903f;fill-opacity:1" />
		<path
   d="m 52.454,71.13 c 0.998,-0.019 1.47,0.938 1.429,1.797 -0.058,1.225 -0.816,7.391 -2.45,12.823 -1.634,5.433 -3.472,10.088 -4.329,11.558 -0.858,1.47 -5.023,7.024 -5.269,8.658 0,0 -0.973,-8.282 0.082,-20.951 0.531,-6.371 2.532,-8.944 3.92,-10.332 0.822,-0.821 4.504,-3.514 6.617,-3.553 z"
   id="path3471"
   inkscape:connector-curvature="0"
   style="fill:#3f903f;fill-opacity:1" />
	</g>
	<g
   id="adductor"
   class="group"
   style="fill:#3f903f;fill-opacity:1">
		<path
   d="m 84.585,175.926 c -0.214,1.393 -2.024,-29.715 -1.245,-30.882 0.778,-1.167 11.435,-7.157 17.503,-16.569 0.341,-0.528 -1.322,6.391 -4.044,12.757 -5.29,12.369 -11.901,32.671 -12.214,34.694 z"
   id="path3474"
   inkscape:connector-curvature="0"
   style="fill:#3f903f;fill-opacity:1" />
		<path
   d="m 80.054,175.926 c 0.215,1.393 2.024,-29.715 1.245,-30.882 -0.778,-1.167 -11.435,-7.157 -17.503,-16.569 -0.34,-0.528 1.322,6.391 4.045,12.757 5.289,12.369 11.902,32.671 12.213,34.694 z"
   id="path3476"
   inkscape:connector-curvature="0"
   style="fill:#3f903f;fill-opacity:1" />
	</g>
	<g
   id="sartorius"
   class="group"
   style="fill:#3f903f;fill-opacity:1">
		<path
   d="m 87.93,184.871 c -0.543,-4.821 -0.046,-15.021 -0.389,-14.391 -0.552,1.017 -8.013,20.304 -1.401,40.218 0.179,0.537 -0.154,-9.412 3.113,-16.491 0,0 -0.778,-4.513 -1.323,-9.336 z"
   id="path3479"
   inkscape:connector-curvature="0"
   style="fill:#3f903f;fill-opacity:1" />
		<path
   d="m 76.709,184.871 c 0.543,-4.821 0.046,-15.021 0.389,-14.391 0.552,1.017 8.013,20.304 1.4,40.218 -0.179,0.537 0.155,-9.412 -3.112,-16.491 0,0 0.779,-4.513 1.323,-9.336 z"
   id="path3481"
   inkscape:connector-curvature="0"
   style="fill:#3f903f;fill-opacity:1" />
	</g>
</g>

<path
   style="fill:#3f903f;fill-opacity:1"
   inkscape:connector-curvature="0"
   id="path3639"
   d="m 122.46343,115.67805 c -0.369,-1.251 -2.412,-9.957 -1.167,-13.263 1.246,-3.307004 1.712,-1.945 1.868,-1.907 0.156,0.04 2.622,3.379 4.2,7.118 0.741,1.751 2.283,6.888 2.491,11.708 0.232,5.407 3.668,15.826 5.833,18.708 0.232,0.311 -0.816,-0.233 -1.401,-0.973 -0.541,-0.685 -8.245,-9.256 -11.824,-21.391 z" /><path
   style="fill:#3f903f;fill-opacity:1"
   inkscape:connector-curvature="0"
   id="path3641"
   d="m 36.194431,115.67805 c 0.369,-1.251 2.412,-9.957 1.167,-13.263 -1.245,-3.307004 -1.711,-1.945 -1.867,-1.907 -0.156,0.04 -2.622,3.379 -4.201,7.118 -0.74,1.751 -2.282,6.888 -2.49,11.708 -0.232,5.407 -3.669,15.826 -5.833,18.708 -0.233,0.311 0.816,-0.233 1.4,-0.973 0.543,-0.685 8.245,-9.256 11.824,-21.391 z" /><path
   style="fill:#3f903f;fill-opacity:1"
   inkscape:connector-curvature="0"
   id="path3643"
   d="m 112.85643,109.37705 c -0.136,-0.245 -1.644,-3.085 -1.479,-4.862 0.157,-1.671 0.332,-3.288 1.362,-2.178 1.011,1.089 4.938,5.484 7,9.762 0.983,2.039 5.135,13.886 6.261,20.887 1.22,7.565 1.129,11.981 0.74,11.125 -0.389,-0.856 -4.083,-10.657 -5.523,-13.691 -1.438,-3.034 -5.362,-12.092 -6.378,-16.257 -0.387,-1.597 -0.854,-2.763 -1.983,-4.786 z" /><path
   style="fill:#3f903f;fill-opacity:1"
   inkscape:connector-curvature="0"
   id="path3645"
   d="m 45.801431,109.37705 c 0.136,-0.245 1.644,-3.085 1.479,-4.862 -0.156,-1.671 -0.331,-3.288 -1.362,-2.178 -1.011,1.089 -4.939,5.484 -7.001,9.762 -0.982,2.039 -5.134,13.886 -6.261,20.887 -1.22,7.565 -1.128,11.981 -0.74,11.125 0.39,-0.856 4.084,-10.657 5.524,-13.691 1.438,-3.034 5.363,-12.092 6.377,-16.257 0.39,-1.597 0.856,-2.763 1.984,-4.786 z" />
<path
   style="fill:#3f903f;fill-opacity:1"
   inkscape:connector-curvature="0"
   id="path3648"
   d="m 117.67843,78.824046 c 0,0 -0.058,-10.735 -3.85,-15.286 -3.792,-4.551 -10.734,-7 -11.26,-6.942 -0.525,0.058 -3.470999,1.744 -3.849999,2.976 -0.234,0.758 1.458999,7.001 4.667999,10.618 3.208,3.617 9.79,5.673 11.26,6.359 1.749,0.816 3.032,2.275 3.032,2.275 z" /><path
   style="fill:#3f903f;fill-opacity:1"
   inkscape:connector-curvature="0"
   id="path3650"
   d="m 40.979431,78.824046 c 0,0 0.058,-10.735 3.85,-15.286 3.792,-4.551 10.735,-7 11.26,-6.942 0.525,0.058 3.472,1.744 3.851,2.976 0.233,0.758 -1.458,7.001 -4.667,10.618 -3.208,3.617 -9.791,5.673 -11.26,6.359 -1.75,0.816 -3.034,2.275 -3.034,2.275 z" />
<path
   style="fill:#3f903f;fill-opacity:1"
   inkscape:connector-curvature="0"
   id="path3657"
   d="m 91.133431,208.05305 c -0.32,-0.501 1.356,9.624 -0.058,18.437 -1.284,7.992 -2.45,15.46 -2.509,16.628 -0.058,1.166 -0.758,11.552 -2.917,18.728 -1.643,5.46 -3.559,8.46 -3.559,8.109 0,-0.35 2.532,-6.207 3.326,-9.51 1.459,-6.067 1.808,-16.045 0.992,-21.587 -0.816,-5.543 -2.18,-16.346 -2.488,-17.892 -0.069,-0.344 -0.7,2.879 -1.555,5.758 -0.777,2.609 -1.623,4.793 -1.479,7.233 0.262,4.464 2.254,15.293 2.741,22.595 0.163,2.435 0.157,4.476 -0.135,5.76 -0.23,1.009 -1.406,3.324 -1.751,4.473 -0.966,3.221 -1.283,5.307 -1.283,5.736 0,0.584 0.661,-0.29 0.661,-0.29 0,0 2.386,-2.75 4.94,-5.194 4.025,-3.85 8.486,-18.816 9.918,-25.262 0.231,-1.051 5.307999,-17.911 -4.844,-33.722 z" /><path
   style="fill:#3f903f;fill-opacity:1"
   inkscape:connector-curvature="0"
   id="path3659"
   d="m 67.504431,208.05305 c 0.321,-0.501 -1.356,9.624 0.059,18.437 1.283,7.992 2.45,15.46 2.509,16.628 0.058,1.166 0.758,11.552 2.917,18.728 1.643,5.46 3.559,8.46 3.559,8.109 0,-0.35 -2.531,-6.207 -3.326,-9.51 -1.458,-6.067 -1.808,-16.045 -0.991,-21.587 0.817,-5.543 2.18,-16.346 2.488,-17.892 0.07,-0.344 0.701,2.879 1.557,5.758 0.775,2.609 1.622,4.793 1.478,7.233 -0.263,4.464 -2.254,15.293 -2.741,22.595 -0.163,2.435 -0.157,4.476 0.135,5.76 0.23,1.009 1.406,3.324 1.751,4.473 0.968,3.221 1.283,5.307 1.283,5.736 0,0.584 -0.662,-0.29 -0.662,-0.29 0,0 -2.383,-2.75 -4.939,-5.194 -4.026,-3.85 -8.487,-18.816 -9.918,-25.262 -0.234,-1.051 -5.31,-17.911 4.841,-33.722 z" />
</svg>