<?xml version="1.0" encoding="utf-8"?>
<!DOCTYPE svg PUBLIC "-//W3C//DTD SVG 1.1 Basic//EN" "http://www.w3.org/Graphics/SVG/1.1/DTD/svg11-basic.dtd" [
	<!ENTITY st0 "fill:#333;">
	<!ENTITY st1 "fill:#fff;">
]>

<svg version="1.1" baseProfile="basic" xmlns="http://www.w3.org/2000/svg" xmlns:xlink="http://www.w3.org/1999/xlink" x="0px"
	 y="0px" width="334px" height="305px" viewBox="0 0 334 305" xml:space="preserve">

	 <script type="text/ecmascript"><![CDATA[

  ]]></script>

<g id="male-front" style="&st0;">
	<g id="other-front">
		<g>
			<path d="M93.959,29.097c0,0,1.484-6.333,1.829-6.963c0.233-0.428,1.126,0.389,1.322,0.622
				c0.195,0.233,0.816,0.856,0.545,1.323c-0.273,0.466-2.295,5.367-2.801,5.522C94.348,29.758,93.88,29.525,93.959,29.097z"/>
			<path d="M94.059,24.233c1.662-6.076-0.681-12.484-1.355-13.107c-0.099-0.091-3.11-5.564-9.819-6.024
				c-0.049-0.003-1.042-0.005-1.09,0c-6.799,0.592-9.356,5.465-9.77,6.003c-0.016,0.009-0.033,0.006-0.049,0.021
				c-0.695,0.643-3.15,7.432-1.176,13.668c0.083,1.104,0.228,2.254,0.461,3.466c0.005,0.029,0.035,0.104,0.08,0.208
				c0.026,0.141,0.06,0.308,0.114,0.542c0.295,1.294,0.485,6.359,0.793,7.243c0.317,0.91,3.581,2.625,5.597,3.404
				c0.878,0.416,2.316,0.876,2.729,0.946c0.18,0.031,1.077,0.194,1.724,0.214c0.645-0.02,1.314-0.245,1.49-0.296
				c0.341-0.099,1.219-0.291,1.978-0.511c1.573-0.37,6.283-2.656,6.667-3.758c0.311-0.884,0.498-5.949,0.795-7.243
				c0.159-0.695,0.18-0.923,0.152-0.983C93.674,26.686,93.899,25.422,94.059,24.233z"/>
			<path d="M91.433,40.104c-0.274,0.739-2.64,2.977-4.211,5.465c-1.751,2.771-2.907,6.667-2.907,6.67
				c-0.154,0.778-0.253,0.361-0.215,0.011c0.538-4.863,1.778-6.782,3.714-9.267c1.517-1.946,3.346-4.201,3.151-4.046
				c-0.624,0.497-4.099,1.918-4.277,2.256c-4.289,8.109-3.488,13.12-3.073,12.991c0.31-0.097,1.438-0.592,2.323-1.38
				c2.878-2.567,5.455-6.671,5.843-7.76C91.955,44.555,91.626,41.737,91.433,40.104z"/>
			<path d="M85.946,54.301c0,0,5.25-4.94,6.262-7.74c0.155-0.428,0.428-0.544,0.855-0.272
				c0.429,0.272,7.213,3.486,8.051,3.656c0.196,0.039-3.148,2.567-7.815,3.345C88.407,54.104,84.002,56.363,85.946,54.301z"/>
			<path d="M106.211,74.994c-0.079-0.156,1.246-1.363,1.518-1.091c0.273,0.273,1.537,6.05-0.389,17.076
				c-0.054,0.315-0.233-0.942-0.195-1.478C107.226,88.375,107.299,77.794,106.211,74.994z"/>
			<path d="M109.243,80.455c-0.19,1.262,3.286,13.819,5.562,14.834c0.44,0.194-2.389-8.736-2.634-10.15
				C111.927,83.723,109.828,76.549,109.243,80.455z"/>
			<path d="M130.289,129.368c0.201,0.729,1.438,9.529,0.622,11.863c-0.475,1.358-0.869,2.767-0.855,3.89
				c0.021,1.732,2.068,5.133,4.316,6.69c1.516,1.05,2.723,1.517,2.683,1.399c-0.303-0.902-2.801-2.605-2.372-6.3
				c0.257-2.213,0.882-4.301,0.74-5.329C134.256,133.218,129.781,127.54,130.289,129.368z"/>
			<path d="M138.728,135.241c-2.828-0.315-4.315-2.36-5.99-4.24c0,0,1.907,2.411,2.762,5.601
				c0.855,3.19,1.829,7.235,3.851,6.496c2.022-0.739,2.091-2.206,7.352-1.322c0.232,0.04-2.028-2.484-3.579-3.929
				C141.515,136.352,140.129,135.397,138.728,135.241z"/>
			<path d="M136.862,133.568c-0.274,0.039-5.797-5.133-6.69-7.039c-0.896-1.907-1.267-4.58-0.857-3.89
				C132.582,128.123,137.104,133.534,136.862,133.568z"/>
			<path d="M142.541,142.63c0.1-0.255,3.072-0.312,4.083,0c1.01,0.312,4.676,2.107,4.938,2.179
				c0.43,0.116-0.623,1.982-2.062,1.905c-1.438-0.078-3.46-0.933-4.317-0.894C144.328,145.858,142.462,142.825,142.541,142.63z"/>
			<path d="M135.656,148.193c-0.106-1.478,0.504-5.446,1.321-4.784c0.321,0.26,1.356,1.247,4.24-0.195
				c0.467-0.234,1.559,1.805,1.672,2.373c0.117,0.584-1.623,0.298-2.256,1.945c-0.971,2.529-1.87,4.18-2.333,4.55
				C137.94,152.37,135.823,150.573,135.656,148.193z"/>
			<path d="M134.721,153.133c0,0,3.58,6.739,4.396,6.934c0.817,0.193,1.06-0.213,0.788-0.759
				c-0.272-0.545-2.372-4.822-2.683-4.901C136.908,154.329,134.566,152.549,134.721,153.133z"/>
			<path d="M140.633,158.228c0.802,1.604,1.225,2.966,1.809,3.647c0.505,0.588,1.809,0.642,1.925,0.408
				s0.312-0.632,0.039-1.06c-0.214-0.337-3.831-8.45-4.911-9.297c-0.276-0.217-1.153,1.006-1.273,1.283
				C138.105,153.483,139.481,155.92,140.633,158.228z"/>
			<path d="M141.217,148.514c-0.417,0.415-1.081,2.021-1.139,2.333c-0.026,0.154,2.13,3.938,2.859,5.28
				c0.507,0.933,2.525,5.197,2.917,5.572c0.641,0.611,1.896,1.225,2.246-0.497C148.242,160.518,141.421,148.311,141.217,148.514z"/>
			<path d="M143.375,146.502c-0.292-0.35-1.885,0.603-1.537,1.458c0.193,0.473,4.901,8.595,5.484,9.334
				c0.583,0.738,1.012,1.779,1.634,1.05c0.435-0.509,0.41-1.609-2.1-5.716C146.001,151.227,144.203,147.498,143.375,146.502z"/>
			<path d="M105.591,95.636c-0.064,0.367-1.898-6.003-3.92-9.556c-2.022-3.553-2.732-5.715-2.512-6.617
				c0.286-1.163,6.125-4.716,6.372-3.675C105.775,76.831,106.938,87.918,105.591,95.636z"/>
			<path d="M104.063,103.529c-0.257,0.321-0.192-2.638-3.087-5.532c-1.61-1.608-4.116-4.117-4.567-5.661
				c-0.451-1.543-2.677-11.525-2.443-12.221c0.191-0.578,0.814-0.92,1.049-0.964c0.574-0.105,1.908-0.194,2.423,0.899
				c0.515,1.094,4.309,8.426,5.403,10.486C103.935,92.594,106.65,100.297,104.063,103.529z"/>
			<path d="M73.229,40.104c0.272,0.739,2.639,2.977,4.211,5.465c1.75,2.771,2.906,6.667,2.908,6.67
				c0.152,0.778,0.251,0.361,0.213,0.011c-0.538-4.863-1.776-6.782-3.714-9.267c-1.517-1.946-3.346-4.201-3.151-4.046
				c0.624,0.497,4.099,1.918,4.277,2.256c4.289,8.109,3.488,13.12,3.074,12.991c-0.312-0.097-1.44-0.592-2.324-1.38
				c-2.878-2.567-5.455-6.671-5.844-7.76C72.704,44.555,73.034,41.737,73.229,40.104z"/>
			<path d="M78.713,54.301c0,0-5.25-4.94-6.263-7.74c-0.155-0.428-0.427-0.544-0.854-0.272
				c-0.429,0.272-7.212,3.486-8.052,3.656c-0.195,0.039,3.149,2.567,7.817,3.345C76.252,54.104,80.659,56.363,78.713,54.301z"/>
			<path d="M58.449,74.994c0.078-0.156-1.245-1.363-1.517-1.091c-0.272,0.273-1.537,6.05,0.388,17.076
				c0.056,0.315,0.235-0.942,0.195-1.478C57.433,88.375,57.36,77.794,58.449,74.994z"/>
			<path d="M55.417,80.455c0.189,1.262-3.285,13.819-5.562,14.834c-0.439,0.194,2.392-8.736,2.634-10.15
				C52.733,83.723,54.832,76.549,55.417,80.455z"/>
			<path d="M34.372,129.368c-0.202,0.729-1.439,9.529-0.623,11.863c0.476,1.358,0.871,2.767,0.856,3.89
				c-0.022,1.732-2.068,5.133-4.316,6.69c-1.517,1.05-2.724,1.517-2.684,1.399c0.303-0.902,2.801-2.605,2.372-6.3
				c-0.256-2.213-0.882-4.301-0.739-5.329C30.405,133.218,34.878,127.54,34.372,129.368z"/>
			<path d="M25.932,135.241c2.828-0.315,4.316-2.36,5.991-4.24c0,0-1.907,2.411-2.763,5.601
				c-0.855,3.19-1.829,7.235-3.85,6.496c-2.022-0.739-2.091-2.206-7.351-1.322c-0.234,0.04,2.027-2.484,3.579-3.929
				C23.146,136.352,24.531,135.397,25.932,135.241z"/>
			<path d="M27.798,133.568c0.273,0.039,5.796-5.133,6.69-7.039c0.894-1.907,1.266-4.58,0.856-3.89
				C32.078,128.123,27.556,133.534,27.798,133.568z"/>
			<path d="M22.121,142.63c-0.101-0.255-3.073-0.312-4.084,0c-1.011,0.312-4.678,2.107-4.94,2.179
				c-0.428,0.116,0.624,1.982,2.062,1.905c1.438-0.078,3.461-0.933,4.317-0.894C20.332,145.858,22.198,142.825,22.121,142.63z"/>
			<path d="M29.004,148.193c0.105-1.478-0.506-5.446-1.323-4.784c-0.32,0.26-1.355,1.247-4.238-0.195
				c-0.467-0.234-1.56,1.805-1.673,2.373c-0.116,0.584,1.624,0.298,2.256,1.945c0.972,2.529,1.871,4.18,2.334,4.55
				C26.72,152.37,28.836,150.573,29.004,148.193z"/>
			<path d="M29.939,153.133c0,0-3.579,6.739-4.396,6.934c-0.817,0.193-1.06-0.213-0.788-0.759
				c0.272-0.545,2.372-4.822,2.684-4.901C27.751,154.329,30.094,152.549,29.939,153.133z"/>
			<path d="M24.026,158.228c-0.802,1.604-1.225,2.966-1.809,3.647c-0.505,0.588-1.809,0.642-1.925,0.408
				s-0.311-0.632-0.038-1.06c0.213-0.337,3.83-8.45,4.909-9.297c0.278-0.217,1.155,1.006,1.275,1.283
				C26.555,153.483,25.18,155.92,24.026,158.228z"/>
			<path d="M23.443,148.514c0.415,0.415,1.081,2.021,1.137,2.333c0.029,0.154-2.129,3.938-2.858,5.28
				c-0.507,0.933-2.525,5.197-2.918,5.572c-0.641,0.611-1.896,1.225-2.246-0.497C16.419,160.518,23.239,148.311,23.443,148.514z"/>
			<path d="M21.284,146.502c0.292-0.35,1.886,0.603,1.537,1.458c-0.193,0.473-4.901,8.595-5.484,9.334
				c-0.583,0.738-1.012,1.779-1.634,1.05c-0.435-0.509-0.41-1.609,2.1-5.716C18.659,151.227,20.457,147.498,21.284,146.502z"/>
			<path d="M59.068,95.636c0.064,0.367,1.898-6.003,3.92-9.556c2.022-3.553,2.732-5.715,2.512-6.617
				c-0.287-1.163-6.126-4.716-6.372-3.675C58.884,76.831,57.721,87.918,59.068,95.636z"/>
			<path d="M60.596,103.529c0.257,0.321,0.192-2.638,3.087-5.532c1.61-1.608,4.117-4.117,4.567-5.661
				c0.45-1.543,2.677-11.525,2.444-12.221c-0.193-0.578-0.815-0.92-1.05-0.964c-0.574-0.105-1.908-0.194-2.423,0.899
				c-0.514,1.094-4.309,8.426-5.404,10.486C60.724,92.594,58.009,100.297,60.596,103.529z"/>
			<path d="M82.331,79.7c-0.507,0-2.761-3.484-2.644-3.734c0.27-0.585,2.099-3.579,2.624-3.579
				c0.524,0,2.284,2.907,2.625,3.579C85.06,76.211,82.835,79.7,82.331,79.7z"/>
			<path d="M82.313,61.029c0,0-0.568-2.865-2.194-4.493c-0.262-0.262-0.671-1.021,0.555-0.554
				c0.587,0.224,1.64,0.292,1.64,0.292s1.053-0.068,1.64-0.292c1.226-0.466,0.816,0.292,0.555,0.554
				C82.882,58.164,82.313,61.029,82.313,61.029z"/>
			<path d="M82.313,41.805c-0.993,0-3.39-0.496-3.273-0.291c0,0,2.485,4.966,2.771,9.539
				c0.029,0.467,0.356,0.992,0.502,1.021c0.146-0.029,0.474-0.554,0.503-1.021c0.286-4.573,2.771-9.539,2.771-9.539
				C85.703,41.31,83.305,41.805,82.313,41.805z"/>
			<path d="M104.889,123.573c-0.079-0.7-2.101,14.002-1.867,18.67c0.233,4.667,0.738,26.72,0.078,32.36
				c0,0,1.61-6.724,2.801-16.957c1.167-10.036,1.167-19.604,0.543-23.261C105.822,130.729,104.968,124.273,104.889,123.573z"/>
			<path d="M90.634,234.832c-0.182-1.002-2.276-18.728-2.684-19.603c-0.408-0.876-0.875-3.968-0.583-6.769
				c0.292-2.8,0.874-8.809,2.586-12.231c1.099-2.199,3.947,11.94,3.656,17.25C93.317,218.788,90.983,236.758,90.634,234.832z"/>
			<path d="M84.227,268.23c1.194-1.277,4.563-4.221,5.758-5.499c1.192-1.278,1.895-3.069,2.247-3.006
				c0.35,0.062,0.912,4.413-0.491,6.268c-1.406,1.854-4.284,3.836-5.407,5.179c-1.123,1.345-2.215,6.263-2.421,6.188
				C83.419,277.184,83.406,269.109,84.227,268.23z"/>
			<path d="M83.737,288.315c0,0-0.371-7.592,0.352-8.954c0.72-1.363,1.533-5.755,3.711-7.674
				c2.369-2.084,3.826-4.005,3.992-3.805c0.166,0.202-0.923,2.693,1.146,9.695c0.246,0.833-2.532,2.995-3.418,3.651
				C88.631,281.886,84.18,285.791,83.737,288.315z"/>
			<path d="M83.652,292.254c0,0-0.35,2.196-0.117,2.729c0.234,0.53,1.828,0.461,1.945,0.354
				c0.116-0.104,1.79-0.532,1.75-1.311c-0.016-0.335,0.028-1.377-0.154-2.48c-0.053-0.323-0.203-1.057-0.272-1.381
				c-0.243-1.135-0.291-2.034-0.271-2.41c0.039-0.85,0-2.266,0-2.266s-2.53,2.515-2.957,5.313
				C83.491,291.356,83.498,291.793,83.652,292.254z"/>
			<path d="M87.583,285.314c-0.056,0.307,0,2.357,0.148,2.795c0.149,0.438,0.704,2.928,0.74,3.567
				c0.036,0.639,1.587,0.606,1.773,0.472c0.184-0.135,0.85-0.809,0.85-0.809s0.789-0.27,0.962-0.403
				c0.256-0.202,0.331-0.37,0.331-0.37s1.44-0.606,1.59-1.649c0,0,1.182-0.874,1.146-1.111c-0.039-0.235-0.075-0.572-0.148-1.145
				c-0.075-0.57,0.036-0.84,0.111-1.581c0.073-0.74-1.516-6.058-1.773-6.462C92.942,281.715,88.028,282.926,87.583,285.314z"/>
			<path d="M59.75,123.573c0.078-0.7,2.1,14.002,1.867,18.67c-0.233,4.667-0.739,26.72-0.077,32.36
				c0,0-1.611-6.724-2.801-16.957c-1.167-10.036-1.167-19.604-0.544-23.261C58.818,130.729,59.672,124.273,59.75,123.573z"/>
			<path d="M74.006,234.832c0.183-1.002,2.275-18.728,2.684-19.603c0.408-0.876,0.875-3.968,0.583-6.769
				c-0.292-2.8-0.875-8.809-2.587-12.231c-1.099-2.199-3.947,11.94-3.655,17.25C71.322,218.788,73.656,236.758,74.006,234.832z"/>
			<path d="M80.413,268.23c-1.192-1.277-4.563-4.221-5.756-5.499s-1.896-3.069-2.248-3.006
				c-0.35,0.062-0.912,4.413,0.491,6.268c1.405,1.854,4.284,3.836,5.407,5.179c1.123,1.345,2.215,6.263,2.421,6.188
				C81.22,277.184,81.233,269.109,80.413,268.23z"/>
			<path d="M80.903,288.315c0,0,0.371-7.592-0.349-8.954c-0.723-1.363-1.536-5.755-3.714-7.674
				c-2.369-2.084-3.825-4.005-3.991-3.805c-0.166,0.202,0.923,2.693-1.146,9.695c-0.247,0.833,2.531,2.995,3.417,3.651
				C76.008,281.886,80.46,285.791,80.903,288.315z"/>
			<path d="M80.987,292.254c0,0,0.351,2.196,0.117,2.729c-0.233,0.53-1.828,0.461-1.944,0.354
				c-0.116-0.104-1.788-0.532-1.75-1.311c0.017-0.335-0.028-1.377,0.155-2.48c0.055-0.323,0.202-1.057,0.271-1.381
				c0.243-1.135,0.29-2.034,0.273-2.41c-0.04-0.85,0-2.266,0-2.266s2.527,2.515,2.956,5.313
				C81.151,291.356,81.144,291.793,80.987,292.254z"/>
			<path d="M77.056,285.314c0.057,0.307,0,2.357-0.147,2.795c-0.148,0.438-0.703,2.928-0.741,3.567
				c-0.036,0.639-1.588,0.606-1.772,0.472c-0.185-0.135-0.851-0.809-0.851-0.809s-0.79-0.27-0.96-0.403
				c-0.258-0.202-0.333-0.37-0.333-0.37s-1.44-0.606-1.589-1.649c0,0-1.183-0.874-1.146-1.111c0.038-0.235,0.074-0.572,0.147-1.145
				c0.075-0.57-0.036-0.84-0.11-1.581c-0.074-0.74,1.515-6.058,1.773-6.462C71.698,281.715,76.612,282.926,77.056,285.314z"/>
			<path d="M70.719,29.097c0,0-1.485-6.333-1.829-6.963c-0.233-0.428-1.127,0.389-1.323,0.622
				c-0.194,0.233-0.817,0.856-0.544,1.323c0.273,0.466,2.295,5.367,2.8,5.522C70.331,29.758,70.797,29.525,70.719,29.097z"/>
		</g>
	</g>
	<g id="quadriceps-femoris" class="group">
		<path d="M101.777,129.719c0.174-0.618,1.012-2.255,1.012-0.777c0,1.478-0.933,8.713-0.778,14.002
			c0.154,5.289,0.701,25.203-0.545,33.294c-1.244,8.091-3.811,25.749-3.656,30.416c0,0-6.456-10.189-7.546-16.336
			c-1.089-6.146-2.022-20.458,1.09-29.871C94.464,151.034,98.432,141.621,101.777,129.719z"/>
		<path d="M62.862,129.719c-0.173-0.618-1.012-2.255-1.012-0.777c0,1.478,0.934,8.713,0.778,14.002
			c-0.155,5.289-0.7,25.203,0.545,33.294c1.243,8.091,3.81,25.749,3.656,30.416c0,0,6.457-10.189,7.546-16.336
			c1.088-6.146,2.022-20.458-1.09-29.871C70.175,151.034,66.208,141.621,62.862,129.719z"/>
	</g>
	<g id="pectoralis-major" class="group">
		<path d="M83.264,68.732c-0.015-0.661,0.077-4.862,0.311-6.924c0.233-2.062,1.367-3.785,2.723-4.628
			c3.189-1.983,11.94-4.084,12.836-4.551c0.892-0.467,2.955-1.905,3.538-1.944c0.583-0.039,2.451,0.233,2.217,0.467
			c-0.234,0.233-2.064,0.729-3.617,2.411c-0.934,1.011-0.855,2.179-0.663,2.645c0.167,0.396,1.946,5.329,4.434,9.374
			c1.995,3.24,2.256,4.745,1.984,5.445c-0.271,0.7-6.301,5.814-10.422,6.69c-4.245,0.901-7.605,0.351-9.647-1.4
			C84.916,74.565,83.341,72.271,83.264,68.732z"/>
		<path d="M81.397,68.732c0.015-0.661-0.079-4.862-0.312-6.924c-0.233-2.062-1.367-3.785-2.722-4.628
			c-3.191-1.983-11.942-4.084-12.836-4.551c-0.895-0.467-2.957-1.905-3.54-1.944s-2.45,0.233-2.217,0.467
			c0.233,0.233,2.063,0.729,3.617,2.411c0.934,1.011,0.856,2.179,0.662,2.645c-0.165,0.396-1.945,5.329-4.434,9.374
			c-1.994,3.24-2.255,4.745-1.983,5.445c0.271,0.7,6.301,5.814,10.423,6.69c4.245,0.901,7.605,0.351,9.647-1.4
			C79.743,74.565,81.319,72.271,81.397,68.732z"/>
	</g>
	<g id="rectus-adboinis" class="group">
		<path d="M84.041,88.013c-0.671-0.059-1.108-0.379-1.167-0.934c-0.014-0.145-0.029-4.638,0.058-5.076
			c0.088-0.437,2.363-4.171,2.917-4.142c0.554,0.029,5.485,1.576,6.448,3.325c0.962,1.751,2.933,10.555,2.246,10.104
			C90.376,88.55,85.82,88.167,84.041,88.013z"/>
		<path d="M90.089,99.011c-1.763-0.36-6.476-0.039-6.981-0.322c-0.354-0.197-0.583-7.847,0.175-8.664
			c0.45-0.484,2.821-0.524,4.2-0.262c1.342,0.254,6.593,2.042,7.293,4.785c0.72,2.821,0.992,6.854,0.524,6.738
			C94.987,101.208,93.739,99.756,90.089,99.011z"/>
		<path d="M82.845,103.969c0.058-0.729,0.175-3.588,1.225-3.675c1.049-0.087,6.474-0.88,11.201,2.713
			c0.729,0.554-1.283,8.81-3.588,9.13c-2.477,0.344-6.943,1.75-7.409,1.925c-0.467,0.175-1.342-0.7-1.312-1.138
			C82.991,112.488,82.845,103.969,82.845,103.969z"/>
		<path d="M80.619,88.013c0.671-0.059,1.108-0.379,1.167-0.934c0.014-0.145,0.029-4.638-0.059-5.076
			c-0.087-0.437-2.363-4.171-2.917-4.142c-0.554,0.029-5.484,1.576-6.447,3.325c-0.962,1.751-2.932,10.555-2.246,10.104
			C74.284,88.55,78.841,88.167,80.619,88.013z"/>
		<path d="M74.571,99.011c1.763-0.36,6.476-0.039,6.981-0.322c0.354-0.197,0.583-7.847-0.175-8.664
			c-0.45-0.484-2.821-0.524-4.201-0.262c-1.341,0.254-6.592,2.042-7.292,4.785c-0.72,2.821-0.992,6.854-0.526,6.738
			C69.673,101.208,70.922,99.756,74.571,99.011z"/>
		<path d="M81.814,103.969c-0.058-0.729-0.175-3.588-1.225-3.675c-1.05-0.087-6.474-0.88-11.202,2.713
			c-0.729,0.554,1.284,8.81,3.588,9.13c2.478,0.344,6.943,1.75,7.41,1.925c0.466,0.175,1.341-0.7,1.312-1.138
			S81.814,103.969,81.814,103.969z"/>
		<path d="M82.679,140.57c0.662-0.04,3.151-1.089,3.696-1.634c6.187-6.19,7.546-21.354,7.585-22.792
			c0.039-1.439,0.428-2.412-1.012-2.879c-1.438-0.467-7.74,1.595-8.907,2.256c-1.167,0.661-1.399,11.396-1.399,11.396L82.679,140.57
			z"/>
		<path d="M82.019,126.917c0,0-0.233-10.735-1.4-11.396s-7.468-2.723-8.906-2.256c-1.44,0.467-1.051,1.44-1.012,2.879
			c0.039,1.438,1.4,16.602,7.585,22.792c0.545,0.545,3.034,1.594,3.696,1.634L82.019,126.917z"/>
	</g>
	<g id="adbominal-external-oblique" class="group">
		<path d="M96.143,95.683c0.059,0.383,3.818,12.026-2.47,17.133c-0.513,0.414,4.778,0.857,8.596-7.699
			c0.19-0.426,0.333-1.614,0.123-2.634C101.963,100.4,96.021,94.887,96.143,95.683z"/>
		<path d="M91.217,136.875c-0.582,0.395-2.976,1.517-2.45,0.583c0.524-0.933,6.768-11.493,6.67-22.287
			c-0.007-0.74,0.389-1.244,1.126-1.594c2.454-1.163,5.117-4.046,6.458-7.08c0.333-0.755,2.372,7.74,1.671,11.941
			C103.994,122.639,99.152,131.507,91.217,136.875z"/>
		<path d="M68.516,95.683c-0.058,0.383-3.817,12.026,2.471,17.133c0.513,0.414-4.778,0.857-8.596-7.699
			c-0.19-0.426-0.332-1.614-0.122-2.634C62.697,100.4,68.639,94.887,68.516,95.683z"/>
		<path d="M73.442,136.875c0.582,0.395,2.976,1.517,2.451,0.583c-0.525-0.933-6.768-11.493-6.671-22.287
			c0.007-0.74-0.389-1.244-1.127-1.594c-2.453-1.163-5.116-4.046-6.457-7.08c-0.334-0.755-2.372,7.74-1.672,11.941
			C60.666,122.639,65.508,131.507,73.442,136.875z"/>
	</g>
	<g id="biceps-branchii" class="group">
		<path d="M112.207,71.13c-0.998-0.019-1.47,0.938-1.43,1.797c0.058,1.225,0.816,7.391,2.45,12.823
			c1.634,5.433,3.472,10.088,4.33,11.558c0.858,1.47,5.023,7.024,5.267,8.658c0,0,0.974-8.282-0.082-20.951
			c-0.53-6.371-2.53-8.944-3.919-10.332C118.002,73.862,114.319,71.169,112.207,71.13z"/>
		<path d="M52.454,71.13c0.998-0.019,1.47,0.938,1.429,1.797c-0.058,1.225-0.816,7.391-2.45,12.823
			c-1.634,5.433-3.472,10.088-4.329,11.558c-0.858,1.47-5.023,7.024-5.269,8.658c0,0-0.973-8.282,0.082-20.951
			c0.531-6.371,2.532-8.944,3.92-10.332C46.659,73.862,50.341,71.169,52.454,71.13z"/>
	</g>
	<g id="adductor" class="group">
		<path d="M84.585,175.926c-0.214,1.393-2.024-29.715-1.245-30.882c0.778-1.167,11.435-7.157,17.503-16.569
			c0.341-0.528-1.322,6.391-4.044,12.757C91.509,153.601,84.898,173.903,84.585,175.926z"/>
		<path d="M80.054,175.926c0.215,1.393,2.024-29.715,1.245-30.882c-0.778-1.167-11.435-7.157-17.503-16.569
			c-0.34-0.528,1.322,6.391,4.045,12.757C73.13,153.601,79.743,173.903,80.054,175.926z"/>
	</g>
	<g id="sartorius" class="group">
		<path d="M87.93,184.871c-0.543-4.821-0.046-15.021-0.389-14.391c-0.552,1.017-8.013,20.304-1.401,40.218
			c0.179,0.537-0.154-9.412,3.113-16.491C89.253,194.207,88.475,189.694,87.93,184.871z"/>
		<path d="M76.709,184.871c0.543-4.821,0.046-15.021,0.389-14.391c0.552,1.017,8.013,20.304,1.4,40.218
			c-0.179,0.537,0.155-9.412-3.112-16.491C75.386,194.207,76.165,189.694,76.709,184.871z"/>
	</g>
</g>
<g id="male-back" style="&st0;">
	<g id="other-back">
		<path d="M263.186,28.543c0,0,1.49-6.353,1.835-6.985c0.233-0.428,1.13,0.391,1.325,0.625
			c0.196,0.234,0.82,0.859,0.548,1.327c-0.275,0.468-2.304,5.383-2.81,5.54C263.575,29.206,263.107,28.973,263.186,28.543z"/>
		<path d="M300.121,106.583c-0.092,0.092-1.462-2.018-3.248-3.965c-2.079-2.269-3.895-3.767-4.28-4.281
			c-0.126-0.169,0.063-5.589,0.569-5.547c0.161,0.014,4.483,5.464,5.904,9.28C299.741,103.884,300.331,106.372,300.121,106.583z"/>
		<path d="M303.378,152.677c0,0,3.284,6.914,4.094,7.146c0.809,0.23,1.071-0.167,0.824-0.726
			c-0.249-0.559-2.162-4.938-2.47-5.031C305.518,153.972,303.249,152.084,303.378,152.677z"/>
		<path d="M309.074,158.048c0.731,1.644,1.094,3.026,1.648,3.735c0.48,0.612,1.783,0.724,1.911,0.496
			c0.128-0.229,0.342-0.621,0.086-1.062c-0.198-0.345-3.459-8.639-4.502-9.534c-0.269-0.231-1.202,0.956-1.336,1.229
			C306.753,153.18,308.023,155.683,309.074,158.048z"/>
		<path d="M310.095,148.34c-0.435,0.397-1.173,1.977-1.245,2.288c-0.034,0.153,1.957,4.042,2.628,5.418
			c0.467,0.959,2.299,5.322,2.674,5.716c0.615,0.642,1.845,1.312,2.271-0.397C316.595,160.684,310.309,148.145,310.095,148.34z"/>
		<path d="M312.349,146.421c-0.277-0.364-1.917,0.519-1.606,1.393c0.173,0.482,4.526,8.833,5.077,9.599
			s0.934,1.829,1.59,1.126c0.459-0.49,0.483-1.594-1.847-5.823C314.768,151.273,313.133,147.456,312.349,146.421z"/>
		<path d="M256.34,238.097c1.45-0.279,3.923-1.454,5.062-5.061c0.713,0.648,2.783,0.442,4.871-0.254
			c0.075-0.025-1.312,4.302-2.91,9.808c-1.907,6.568-3.304,13.841-3.228,13.792c0.077-0.05,1.818-7.126,3.86-13.729
			c1.756-5.679,3.854-11.022,3.913-11.068c1.034-0.812,1.583-1.836,1.583-1.836c-0.385,4.089-1.611,6.89-1.763,7.271
			c-2.01,5.064-4.114,11.896-6.043,18.911c-0.348,1.714,0.047,4.06,0.096,5.512c0.088,2.695,0.158,3.701-0.043,4.07
			c-0.212-4.598-1.898-5.862-2.277-6.243c-1.814-1.729-4.387-1.813-5.905-0.296c0.292-1.287,1.962-4.302,2.274-7.195
			c0.153-1.406-0.597-5.85-0.622-6.048c-0.4-3.098-0.897-6.305-1.315-9.279C253.893,236.452,254.694,238.413,256.34,238.097z"/>
		<path d="M252.543,263.72c0.443-2.024,0.51-2.577,1.709-3.858c1.195-1.282,3.725-0.472,4.956,0.76
			c0.59,0.59,1.94,5.187,1.753,5.542c-1.091,2.065-4.298,3.849-5.424,5.195c-1.127,1.349-2.223,6.281-2.43,6.208
			C252.613,277.389,252.286,264.899,252.543,263.72z"/>
		<path d="M252.933,288.555c0,0-0.372-7.614,0.353-8.981c0.723-1.369,1.538-5.773,3.723-7.698
			c2.376-2.089,3.838-4.018,4.004-3.814c0.166,0.202-0.623,2.492,1.15,9.724c0.207,0.847-2.54,3.005-3.429,3.662
			C257.842,282.105,253.376,286.022,252.933,288.555z"/>
		<path d="M252.849,292.506c0,0-0.353,2.202-0.118,2.735c0.235,0.533,1.833,0.463,1.95,0.355
			c0.116-0.105,1.796-0.533,1.756-1.314c-0.018-0.337,0.027-1.383-0.155-2.487c-0.053-0.326-0.204-1.061-0.274-1.386
			c-0.242-1.14-0.289-2.041-0.271-2.419c0.038-0.852,0-2.272,0-2.272s-2.536,2.523-2.966,5.331
			C252.685,291.604,252.691,292.044,252.849,292.506z"/>
		<path d="M256.791,285.545c-0.057,0.309,0,2.364,0.148,2.804c0.149,0.438,0.706,2.936,0.741,3.576
			c0.037,0.643,1.594,0.61,1.78,0.475c0.184-0.136,0.853-0.812,0.853-0.812s0.791-0.271,0.964-0.403
			c0.258-0.203,0.332-0.373,0.332-0.373s1.445-0.608,1.595-1.654c0,0,1.186-0.877,1.149-1.114c-0.039-0.236-0.075-0.574-0.148-1.147
			c-0.076-0.574,0.036-0.843,0.111-1.586c0.073-0.743-1.52-6.077-1.779-6.481C262.165,281.933,257.237,283.147,256.791,285.545z"/>
		<path d="M259.377,38.675c-0.067-1.296-0.148-4.787-0.865-6.833c-0.328-0.936-1.109-2.787-1.792-3.374
			c0,0,0.315,10.081,1.74,12.833c1.423,2.751,2.297,3.128,2.183,2.942C259.63,42.618,259.529,41.639,259.377,38.675z"/>
		<path d="M277.092,71.638c-0.063,0.506-0.616,0.877-0.792,0.981c-0.996,0.589-6.231,3.859-13.159,1.834
			c-0.418-0.122-0.783-0.576-0.77-0.643c0.263-1.255,4.766-4.598,5.989-12.738c0.092-0.607,0.919-0.588,1.328-0.348
			c1.139,0.669,2.469,1.719,4.367,4.103C275.952,67.209,277.119,71.416,277.092,71.638z"/>
		<path d="M281.1,89.036c-0.697-0.876-1.729-2.446-1.729-2.446s2.952,7.887,4.175,8.942
			c1.225,1.054,1.393,0.844,1.393,0.506C284.938,95.724,281.902,90.047,281.1,89.036z"/>
		<path d="M311.514,144.441v-0.001c-0.146-0.301-0.315-0.609-0.487-0.863c-0.07-0.148-0.137-0.308-0.196-0.471
			c-0.393-1.01-2.317-6.993-4.033-7.988c-0.578-0.334-1.988-0.751-3.133-0.275c-2.024,0.844-4.16,1.759-4.16,1.871
			c0.002,0.128-0.101,3.225-0.146,4.236c-0.08,1.775-0.024,3.342,0.101,3.868c0.32,1.344,1.445,4.858,3.629,6.52
			c1.473,1.119,2.66,1.643,2.626,1.522c0,0,1.104-0.631,1.73-1.548c0.021-0.029,0.044-0.061,0.065-0.091
			c0.001-0.003,0.005-0.006,0.006-0.009v-0.001c0.524-0.737,1.252-2.077,2.039-3.882c0.709-1.621,2.44-1.257,2.35-1.848
			C311.871,145.274,311.717,144.866,311.514,144.441z"/>
		<path d="M320.629,145.092c-0.161-0.052-1.599-0.824-2.909-1.49c-0.008-0.013-0.022-0.023-0.046-0.023l0,0
			c-1.846-0.836-3.701-4.325-5.192-5.842c-1.2-1.224-2.283-2.105-3.362-2.542c0,0-1.185-0.564-0.96-0.161
			c1.087,1.957,3.604,7.742,3.604,7.742l0.003,0c0.34,0.798,1.695,3.042,2.425,3.042c0.859,0,2.847,0.948,4.285,1.09
			C319.914,147.05,321.054,145.228,320.629,145.092z"/>
		<path d="M261.991,117.001c0,0,0.098,0.238,0.345,0.292c1.445,0.319,6.563,1.605,8.618,4.2
			c0,0-1.144-5.181-6.011-9.237c-0.379-0.316-0.822-0.38-1.074,0C263.614,112.636,262.159,115.398,261.991,117.001z"/>
		<path d="M265.62,111.729c0,0,1.524,1.251,3.5,4.007c1.429,1.994,3.068,5.124,4.344,8.436
			c0.417,1.083,2.15,3.838,2.067,1.687c-0.084-2.15-0.928-9.954-3.163-12.442c-2.235-2.488-4.865-3.423-6.454-2.953
			C264.775,110.8,265.62,111.729,265.62,111.729z"/>
		<path d="M269.541,109.113c0,0,2.067,0.717,4.007,3.923c0.109,0.18,0.718,0.211,0.76-0.464
			c0.041-0.675-0.708-6.393-0.97-6.917c-0.169-0.337-0.633,0.042-0.633,0.042S270.765,108.101,269.541,109.113z"/>
		<path d="M258.554,199.693c0.57-0.507,2.784-4.113,3.164-6.074c0,0,1.961,4.176,1.834,4.618
			c-0.127,0.443-0.696,0.823-1.075,1.456c-0.381,0.633-1.265,3.227-1.328,3.543s-1.835-2.215-2.531-2.468
			C257.922,200.516,258.554,199.693,258.554,199.693z"/>
		<path d="M202.878,106.583c0.093,0.092,1.463-2.018,3.249-3.965c2.079-2.269,3.895-3.767,4.281-4.281
			c0.127-0.169-0.064-5.589-0.57-5.547c-0.161,0.014-4.484,5.464-5.904,9.28C203.259,103.884,202.669,106.372,202.878,106.583z"/>
		<path d="M199.622,152.677c0,0-3.284,6.914-4.094,7.146c-0.811,0.23-1.071-0.167-0.823-0.726
			s2.161-4.938,2.469-5.031C197.482,153.972,199.751,152.084,199.622,152.677z"/>
		<path d="M193.926,158.048c-0.731,1.644-1.096,3.026-1.649,3.735c-0.479,0.612-1.783,0.724-1.91,0.496
			c-0.128-0.229-0.342-0.621-0.086-1.062c0.199-0.345,3.459-8.639,4.502-9.534c0.269-0.231,1.202,0.956,1.335,1.229
			C196.247,153.18,194.977,155.683,193.926,158.048z"/>
		<path d="M192.904,148.34c0.437,0.397,1.176,1.977,1.245,2.288c0.036,0.153-1.956,4.042-2.627,5.418
			c-0.466,0.959-2.298,5.322-2.674,5.716c-0.615,0.642-1.845,1.312-2.271-0.397C186.404,160.684,192.691,148.145,192.904,148.34z"/>
		<path d="M246.66,238.097c-1.45-0.279-3.923-1.454-5.061-5.061c-0.714,0.648-2.785,0.442-4.873-0.254
			c-0.074-0.025,1.313,4.302,2.911,9.808c1.907,6.568,3.304,13.841,3.227,13.792c-0.077-0.05-1.817-7.126-3.859-13.729
			c-1.756-5.679-3.854-11.022-3.914-11.068c-1.033-0.812-1.583-1.836-1.583-1.836c0.386,4.089,1.612,6.89,1.765,7.271
			c2.009,5.064,4.111,11.896,6.042,18.911c0.348,1.714-0.047,4.06-0.096,5.512c-0.088,2.695-0.158,3.701,0.043,4.07
			c0.21-4.598,1.898-5.862,2.277-6.243c1.813-1.729,4.387-1.813,5.905-0.296c-0.293-1.287-1.962-4.302-2.275-7.195
			c-0.152-1.406,0.597-5.85,0.623-6.048c0.4-3.098,0.898-6.305,1.315-9.279C249.107,236.452,248.306,238.413,246.66,238.097z"/>
		<path d="M250.457,263.72c-0.443-2.024-0.51-2.577-1.709-3.858c-1.195-1.282-3.725-0.472-4.956,0.76
			c-0.591,0.59-1.94,5.187-1.753,5.542c1.091,2.065,4.298,3.849,5.424,5.195c1.127,1.349,2.222,6.281,2.429,6.208
			C250.387,277.389,250.714,264.899,250.457,263.72z"/>
		<path d="M250.069,288.555c0,0,0.37-7.614-0.354-8.981c-0.723-1.369-1.537-5.773-3.723-7.698
			c-2.376-2.089-3.838-4.018-4.004-3.814c-0.166,0.202,0.624,2.492-1.15,9.724c-0.207,0.847,2.54,3.005,3.429,3.662
			C245.158,282.105,249.624,286.022,250.069,288.555z"/>
		<path d="M250.151,292.506c0,0,0.353,2.202,0.118,2.735c-0.235,0.533-1.833,0.463-1.949,0.355
			c-0.117-0.105-1.797-0.533-1.757-1.314c0.018-0.337-0.027-1.383,0.155-2.487c0.053-0.326,0.204-1.061,0.274-1.386
			c0.242-1.14,0.289-2.041,0.271-2.419c-0.039-0.852,0-2.272,0-2.272s2.536,2.523,2.966,5.331
			C250.315,291.604,250.307,292.044,250.151,292.506z"/>
		<path d="M246.209,285.545c0.057,0.309,0,2.364-0.148,2.804c-0.149,0.438-0.706,2.936-0.743,3.576
			c-0.035,0.643-1.592,0.61-1.778,0.475c-0.184-0.136-0.853-0.812-0.853-0.812s-0.792-0.271-0.964-0.403
			c-0.256-0.203-0.332-0.373-0.332-0.373s-1.445-0.608-1.595-1.654c0,0-1.185-0.877-1.148-1.114
			c0.038-0.236,0.074-0.574,0.147-1.147c0.076-0.574-0.036-0.843-0.111-1.586c-0.072-0.743,1.52-6.077,1.779-6.481
			C240.834,281.933,245.762,283.147,246.209,285.545z"/>
		<path d="M243.624,38.675c0.067-1.296,0.146-4.787,0.864-6.833c0.328-0.936,1.109-2.787,1.791-3.374
			c0,0-0.314,10.081-1.739,12.833c-1.423,2.751-2.298,3.128-2.181,2.942C243.37,42.618,243.471,41.639,243.624,38.675z"/>
		<path d="M225.908,71.638c0.063,0.506,0.617,0.877,0.792,0.981c0.996,0.589,6.23,3.859,13.159,1.834
			c0.418-0.122,0.783-0.576,0.77-0.643c-0.264-1.255-4.766-4.598-5.989-12.738c-0.092-0.607-0.919-0.588-1.329-0.348
			c-1.137,0.669-2.468,1.719-4.366,4.103C227.048,67.209,225.881,71.416,225.908,71.638z"/>
		<path d="M221.9,89.036c0.697-0.876,1.73-2.446,1.73-2.446s-2.953,7.887-4.176,8.942
			c-1.225,1.054-1.393,0.844-1.393,0.506C218.062,95.724,221.098,90.047,221.9,89.036z"/>
		<path d="M191.486,144.441v-0.001c0.146-0.301,0.315-0.609,0.486-0.863c0.071-0.148,0.138-0.308,0.197-0.471
			c0.394-1.01,2.317-6.993,4.033-7.988c0.578-0.334,1.988-0.751,3.132-0.275c2.024,0.844,4.161,1.759,4.161,1.871
			c-0.002,0.128,0.102,3.225,0.146,4.236c0.08,1.775,0.024,3.342-0.101,3.868c-0.32,1.344-1.446,4.858-3.63,6.52
			c-1.473,1.119-2.659,1.643-2.625,1.522c0,0-1.104-0.631-1.73-1.548c-0.021-0.029-0.044-0.061-0.065-0.091
			c-0.001-0.003-0.003-0.006-0.006-0.009c0,0,0-0.001-0.001-0.001c-0.523-0.737-1.251-2.077-2.038-3.882
			c-0.708-1.621-2.44-1.257-2.35-1.848C191.129,145.274,191.282,144.866,191.486,144.441z"/>
		<path d="M182.371,145.092c0.161-0.052,1.599-0.824,2.908-1.49c0.009-0.013,0.023-0.023,0.047-0.023l0,0
			c1.846-0.836,3.701-4.325,5.192-5.842c1.2-1.224,2.283-2.105,3.362-2.542c0,0,1.185-0.564,0.96-0.161
			c-1.086,1.957-3.604,7.742-3.604,7.742l-0.003,0c-0.34,0.798-1.695,3.042-2.425,3.042c-0.86,0-2.849,0.948-4.286,1.09
			C183.084,147.05,181.947,145.228,182.371,145.092z"/>
		<path d="M241.009,117.001c0,0-0.098,0.238-0.345,0.292c-1.445,0.319-6.564,1.605-8.619,4.2
			c0,0,1.145-5.181,6.012-9.237c0.38-0.316,0.821-0.38,1.074,0S240.84,115.398,241.009,117.001z"/>
		<path d="M237.38,111.729c0,0-1.524,1.251-3.499,4.007c-1.432,1.994-3.069,5.124-4.345,8.436
			c-0.418,1.083-2.151,3.838-2.067,1.687c0.085-2.15,0.928-9.954,3.163-12.442c2.235-2.488,4.865-3.423,6.454-2.953
			C238.225,110.8,237.38,111.729,237.38,111.729z"/>
		<path d="M233.459,109.113c0,0-2.067,0.717-4.007,3.923c-0.111,0.18-0.718,0.211-0.76-0.464
			c-0.042-0.675,0.709-6.393,0.97-6.917c0.169-0.337,0.633,0.042,0.633,0.042S232.235,108.101,233.459,109.113z"/>
		<path d="M244.446,199.693c-0.57-0.507-2.784-4.113-3.164-6.074c0,0-1.96,4.176-1.834,4.618
			c0.127,0.443,0.695,0.823,1.075,1.456c0.379,0.633,1.265,3.227,1.328,3.543s1.835-2.215,2.531-2.468
			C245.078,200.516,244.446,199.693,244.446,199.693z"/>
		<path d="M240.067,28.543c0,0-1.488-6.353-1.835-6.985c-0.233-0.428-1.131,0.391-1.326,0.625
			c-0.195,0.234-0.819,0.859-0.547,1.327c0.275,0.468,2.303,5.383,2.81,5.54C239.678,29.206,240.146,28.973,240.067,28.543z"/>
		<path d="M262.506,11.584c-0.936-1.95-2.391-3.89-4.145-5.028c-1.305-0.846-3.207-1.813-6.284-2.081
			c-0.017-0.001-0.159-0.002-0.333-0.003l0,0c-0.041,0-0.078,0-0.117,0s-0.077,0-0.118,0l0,0c-0.173,0.001-0.314,0.002-0.333,0.003
			c-3.078,0.268-4.979,1.235-6.283,2.081c-1.755,1.138-3.21,3.078-4.145,5.028c-0.782,1.627-1.427,4.566-1.361,7.09
			c0.061,2.333,0.202,3.463,0.609,5.786c0.212,1.204,0.748,3.301,0.91,4.626c0.226,1.847,0.42,5.856,0.693,6.635
			c0.122,0.351,0.683,0.822,1.44,1.312c0.234-3.061,0.867-8.071,3.716-10.19c1.112-0.829,3.008-1.479,4.871-1.56
			c1.862,0.081,3.758,0.731,4.871,1.56c2.847,2.12,3.48,7.129,3.715,10.19c0.758-0.49,1.317-0.961,1.44-1.312
			c0.272-0.779,0.468-4.788,0.693-6.635c0.161-1.326,0.698-3.422,0.91-4.626c0.408-2.322,0.549-3.452,0.609-5.786
			C263.933,16.151,263.287,13.211,262.506,11.584z"/>
		<g>
			<path d="M251.634,40.296l-0.015,0.001c-0.117,3.028-0.807,6.748-4.58,8.585c0,0,2.908,2.043,3.923,5.778
				c0.591,2.172,0.65,3.643,0.65,3.643s0.108-1.281,0.679-3.643c0.907-3.762,3.922-5.778,3.922-5.778
				C252.441,47.044,251.751,43.325,251.634,40.296z"/>
		</g>
		<path d="M190.651,146.421c0.277-0.364,1.917,0.519,1.606,1.393c-0.173,0.482-4.526,8.833-5.077,9.599
			s-0.934,1.829-1.59,1.126c-0.459-0.49-0.484-1.594,1.847-5.823C188.233,151.273,189.867,147.456,190.651,146.421z"/>
	</g>
	<g id="triceps-branchii" class="group">
		<path d="M281.984,71.068c0.381,0,3.712,1.603,6.58,0.759c0.619-0.182,3.079,7.424,2.7,9.996
			c-0.096,0.644-0.241,1.062-0.423,1.351c-0.545,0.864-1.487,0.253-1.771,0.126c-0.38-0.168-3.839-3.458-4.219-4.809
			C284.619,77.664,281.605,71.068,281.984,71.068z"/>
		<path d="M280.677,71.406c2.099,3.965,3.729,5.413,4.091,11.557c0.254,4.302-1.054,6.917-2.488,5.778
			c-1.435-1.139-3.584-4.851-3.88-7.761c-0.296-2.91,0.199-10.545,0.843-10.545C279.959,70.435,280.298,70.773,280.677,71.406z"/>
		<path d="M285.823,82.014c0,0,0.906,6.728-2.784,7.845c0,0,3.858,8.541,4.428,8.288
			c0.57-0.253,1.772-0.674,2.489-0.843c0.246-0.058,0.942,0.133,1.055-0.295c0.323-1.242,0.7-2.757,0.717-4.766
			c0.029-3.349-0.568-7.452-1.286-7.318C288.733,85.24,285.823,82.014,285.823,82.014z"/>
		<path d="M221.015,71.068c-0.38,0-3.711,1.603-6.579,0.759c-0.62-0.182-3.079,7.424-2.7,9.996
			c0.095,0.644,0.241,1.062,0.423,1.351c0.545,0.864,1.486,0.253,1.771,0.126c0.379-0.168,3.84-3.458,4.22-4.809
			C218.381,77.664,221.395,71.068,221.015,71.068z"/>
		<path d="M222.323,71.406c-2.098,3.965-3.731,5.413-4.093,11.557c-0.253,4.302,1.054,6.917,2.49,5.778
			c1.433-1.139,3.584-4.851,3.88-7.761c0.296-2.91-0.199-10.545-0.843-10.545C223.039,70.435,222.702,70.773,222.323,71.406z"/>
		<path d="M217.177,82.014c0,0-0.906,6.728,2.784,7.845c0,0-3.859,8.541-4.429,8.288
			c-0.568-0.253-1.771-0.674-2.488-0.843c-0.246-0.058-0.942,0.133-1.055-0.295c-0.325-1.242-0.7-2.757-0.717-4.766
			c-0.029-3.349,0.568-7.452,1.287-7.318C214.267,85.24,217.177,82.014,217.177,82.014z"/>
	</g>
	<g id="semimembranosus" class="group">
		<path d="M253.994,185.753c0.26-5.664,0.765-10.61,0.384-17.441c-0.136-2.438-0.822-5.503-1.286-7.613
			c0,1.736-0.248,21.856-0.439,28.112c-0.036,1.187-0.038,2.159-0.014,2.957c-0.131,5.82,0.516,12.34,2.706,18.934
			C255.522,211.238,253.635,193.564,253.994,185.753z"/>
		<path d="M249.006,185.753c-0.26-5.664-0.764-10.61-0.384-17.441c0.136-2.438,0.821-5.503,1.286-7.613
			c0,1.736,0.248,21.856,0.439,28.112c0.036,1.187,0.038,2.159,0.014,2.957c0.131,5.82-0.516,12.34-2.706,18.934
			C247.476,211.238,249.365,193.564,249.006,185.753z"/>
	</g>
	<g id="semitendinosus" class="group">
		<path d="M252.797,144.586c0,0,4.386,22.819,2.192,41.884c-0.546,4.741-0.084,12.062,0.845,17.716
			c0,0,0.169-3.037,0.59-3.46c2.093-2.095,3.895-4.715,4.692-7.613c0.285-1.032,0.073-2.129-0.137-2.974
			c-0.205-0.822-0.824-1.868-1.266,0.507c-0.886,4.766-2.488,6.357-2.488,6.357s2.657-8.889,3.67-17.367
			c0.418-3.5,0.347-21.922,0-27.71c-0.096-1.587-1.266-3.828-2.215-4.524c-0.654-0.48-4.144-2.151-4.809-3.448
			C253.638,143.496,252.754,143.49,252.797,144.586z"/>
		<path d="M250.203,144.586c0,0-4.386,22.819-2.193,41.884c0.547,4.741,0.085,12.062-0.844,17.716
			c0,0-0.169-3.037-0.59-3.46c-2.094-2.095-3.895-4.715-4.692-7.613c-0.284-1.032-0.073-2.129,0.137-2.974
			c0.205-0.822,0.824-1.868,1.266,0.507c0.886,4.766,2.488,6.357,2.488,6.357s-2.657-8.889-3.67-17.367
			c-0.417-3.5-0.349-21.922,0-27.71c0.096-1.587,1.266-3.828,2.215-4.524c0.654-0.48,4.144-2.151,4.809-3.448
			C249.362,143.496,250.246,143.49,250.203,144.586z"/>
	</g>
	<g id="biceps-femoris" class="group">
		<path d="M262.92,153.485c0.104-1.06,0.253-1.855,0.59-2.614c0.263-0.588,4.963,1.521,5.146,2.698
			c0.907,5.821,2.552,14.806,0.528,29.737c-0.653,4.806-0.384,7.406-0.633,14.868c-0.126,3.796-0.887,5.631-1.392,6.39
			c-0.833-3.745-0.994-3.755-3.227-10.06c-1.592-4.49-1.983-9.152-1.582-15.943C263.05,166.717,261.959,163.263,262.92,153.485z"/>
		<path d="M240.08,153.485c-0.104-1.06-0.253-1.855-0.59-2.614c-0.263-0.588-4.963,1.521-5.147,2.698
			c-0.906,5.821-2.551,14.806-0.526,29.737c0.652,4.806,0.384,7.406,0.633,14.868c0.126,3.796,0.886,5.631,1.392,6.39
			c0.833-3.745,0.994-3.755,3.229-10.06c1.59-4.49,1.981-9.152,1.58-15.943C239.95,166.717,241.041,163.263,240.08,153.485z"/>
		<path d="M276.112,139.967L276.112,139.967L276.112,139.967c-0.041-2.51-0.016-4.566-0.402-5.812
			c-0.611-1.969-9.002-0.686-6.085,17.011c1.898,11.515,1.351,17.951,1.351,22.145c0,2.657-0.718,10.06-0.718,10.06
			s1.524-6.03,2.217-9.398c0.002-0.003,0.002-0.005,0.002-0.006c0.396-1.771,1.689-7.893,2.688-16.48
			C275.925,150.949,276.19,144.613,276.112,139.967z"/>
		<path d="M226.887,139.967L226.887,139.967L226.887,139.967c0.042-2.51,0.018-4.566,0.404-5.812
			c0.61-1.969,9.001-0.686,6.084,17.011c-1.898,11.515-1.351,17.951-1.351,22.145c0,2.657,0.718,10.06,0.718,10.06
			s-1.525-6.03-2.219-9.398c0-0.003,0-0.005,0-0.006c-0.396-1.771-1.688-7.893-2.688-16.48
			C227.075,150.949,226.81,144.613,226.887,139.967z"/>
	</g>
	<g id="tibialis-posterior" class="group">
		<path d="M256.72,236.831c1.139-0.695,3.796-2.276,4.618-10.629c0.213-2.162,0.446-12.297-0.443-18.348
			c-0.632-4.302-2.656-5.884-3.796-6.073c-1.137-0.19,0.063,9.362-0.974,14.304c-0.371,1.77-0.702,2.886-1.561,5.773
			c-0.778,2.619-1.135,4.787-1.325,7.508c-0.154,2.203,0.063,3.163,0.38,4.556C253.732,234.423,254.695,238.067,256.72,236.831z"/>
		<path d="M246.28,236.831c-1.139-0.695-3.796-2.276-4.618-10.629c-0.213-2.162-0.446-12.297,0.442-18.348
			c0.633-4.302,2.657-5.884,3.797-6.073c1.135-0.19-0.063,9.362,0.974,14.304c0.371,1.77,0.702,2.886,1.561,5.773
			c0.777,2.619,1.135,4.787,1.325,7.508c0.154,2.203-0.063,3.163-0.38,4.556C249.268,234.423,248.305,238.067,246.28,236.831z"/>
	</g>
	<g id="gluteus-maximus" class="group">
		<path d="M252.101,137.058c0,0,0.294-0.709,0.696-1.266c1.738-2.414,6.172-9.188,7.972-16.387
			c0.126-0.506,0.695-1.076,1.266-0.949c0.569,0.127,7.877,0.57,11.514,13.097c0.177,0.605-0.582,1.131-0.759,1.202
			c-1.106,0.443-2.34,1.519-2.973,2.911s-2.406,7.268-1.14,13.603c0.126,0.633-0.062,2.109-1.201,1.729
			C266.337,150.618,253.431,146.021,252.101,137.058z"/>
		<path d="M250.899,137.058c0,0-0.294-0.709-0.696-1.266c-1.738-2.414-6.172-9.188-7.972-16.387
			c-0.127-0.506-0.696-1.076-1.265-0.949c-0.57,0.127-7.878,0.57-11.515,13.097c-0.178,0.605,0.582,1.131,0.759,1.202
			c1.106,0.443,2.34,1.519,2.973,2.911s2.406,7.268,1.139,13.603c-0.126,0.633,0.063,2.109,1.202,1.729
			C236.663,150.618,249.569,146.021,250.899,137.058z"/>
	</g>
	<g id="lavator-scapulae" class="group">
		<path d="M260.326,43.831c-0.232-0.232-2.172-2.594-2.699-4.333c-0.555-1.828-1.498-6.644-1.709-11.706
			c0,0-0.992-0.642-1.813-0.97c-0.902-0.357-2.062-0.372-2.478-0.363c-0.417-0.009-1.576,0.006-2.479,0.363
			c-0.821,0.328-1.812,0.97-1.812,0.97c-0.212,5.062-1.155,9.877-1.71,11.706c-0.526,1.74-2.466,4.102-2.698,4.333
			c0,0-1.835,2.225-6.263,4.166c0,0,8.309,0.084,9.405-0.211c1.096-0.295,3.838-1.567,4.766-6.833
			c0.423-2.398,0.659-5.203,0.791-7.703c0.131,2.5,0.366,5.305,0.79,7.703c0.929,5.266,3.67,6.538,4.766,6.833
			c1.097,0.295,9.407,0.211,9.407,0.211C262.159,46.056,260.326,43.831,260.326,43.831z"/>
	</g>
	<g id="latissimus-dorsi" class="group">
		<path d="M255.538,84.439c1.216-2.596,5.863-9.069,5.863-9.069c0.066-0.099,0.316-0.295,0.548-0.295
			c0.357,0.001,0.846,0.277,1.897,0.591c1.562,0.463,5.315,0.421,7.467-0.169c2.547-0.7,5.547-2.208,5.684-2.01
			c0.137,0.196,1.107,7.409-1.171,13.061c-2.276,5.652-6.074,8.352-10.038,7.888c-3.966-0.464-10.377-7.858-10.377-8.942
			C255.411,85.327,255.347,84.847,255.538,84.439z"/>
		<path d="M263.173,94.604c0,0,2.996,4.499,4.556,13.856c0.063,0.379,6.664-3.396,8.267-20.52
			c0,0-2.51,6.537-5.99,7.423C268.221,95.818,265.449,95.87,263.173,94.604z"/>
		<path d="M247.462,84.439c-1.215-2.596-5.864-9.069-5.864-9.069c-0.064-0.099-0.315-0.295-0.547-0.295
			c-0.357,0.001-0.846,0.277-1.899,0.591c-1.56,0.463-5.313,0.421-7.465-0.169c-2.548-0.7-5.547-2.208-5.684-2.01
			c-0.137,0.196-1.106,7.409,1.171,13.061c2.278,5.652,6.074,8.352,10.038,7.888c3.965-0.464,10.377-7.858,10.377-8.942
			C247.589,85.327,247.653,84.847,247.462,84.439z"/>
		<path d="M239.827,94.604c0,0-2.996,4.499-4.555,13.856c-0.064,0.379-6.665-3.396-8.268-20.52
			c0,0,2.509,6.537,5.99,7.423C234.78,95.818,237.551,95.87,239.827,94.604z"/>
		<path d="M252.342,132.996c0,0-0.271,0.025-0.273-0.146c0-0.253,0.112-39.917,0.273-40.587
			c0.285-1.202,1.299-4.492,1.72-4.745c0.422-0.253,1.076,0.253,1.434,0.59c0.412,0.388,4.81,5.483,5.4,5.99
			c0.59,0.506,5.146,6.243,5.229,14.51c0,0-1.013,0.253-1.687,0.506c-0.273,0.102-2.015,1.117-3.702,4.66
			c-1.229,2.581-2.564,7.162-3.732,10.503C255.011,129.971,252.342,132.996,252.342,132.996z"/>
		<path d="M250.658,132.996c0,0,0.271,0.025,0.273-0.146c0-0.253-0.112-39.917-0.273-40.587
			c-0.285-1.202-1.298-4.492-1.72-4.745c-0.423-0.253-1.076,0.253-1.435,0.59c-0.412,0.388-4.809,5.483-5.399,5.99
			c-0.59,0.506-5.146,6.243-5.229,14.51c0,0,1.013,0.253,1.688,0.506c0.272,0.102,2.014,1.117,3.701,4.66
			c1.229,2.581,2.564,7.162,3.732,10.503C247.989,129.971,250.658,132.996,250.658,132.996z"/>
	</g>
	<g id="trapezius" class="group">
		<path d="M252.101,89.711c0,0-0.4-28.365,0.612-31.591c1.011-3.227,1.812-8.078,5.482-8.774
			c2.176-0.412,5.352-0.673,8.583-0.295c2.222,0.259,4.724,1.16,6.939,1.855c0,0-4.261,0.184-5.736,7.086
			c-0.474,2.218-0.918,4.675-1.729,7.002c-0.994,2.849-3.092,5.755-5.146,8.646C257.137,79.224,252.7,83.792,252.101,89.711z"/>
		<path d="M250.899,89.711c0,0,0.4-28.365-0.612-31.591c-1.012-3.227-1.812-8.078-5.482-8.774
			c-2.174-0.412-5.352-0.673-8.584-0.295c-2.221,0.259-4.722,1.16-6.938,1.855c0,0,4.261,0.184,5.736,7.086
			c0.474,2.218,0.919,4.675,1.729,7.002c0.994,2.849,3.091,5.755,5.147,8.646C245.862,79.224,250.3,83.792,250.899,89.711z"/>
	</g>
</g>
<g id="forearm" style="&st0;" class="group">
	<path d="M307.672,133.62c-0.211-0.59-0.461-1.359-0.763-2.099c-0.131-0.466-0.532-1.85-0.82-2.477
		c-0.347-0.759-3.395-11.283-3.554-11.884c-0.157-0.601,0.033-2.499-0.727-1.74c-0.668,0.669-0.748,11.053-0.758,13.519
		c-1.282-5.483-0.483-13.734-0.677-17.167c-0.211-3.754-3.374-7.719-3.88-8.14c-0.507-0.422-0.97-0.422-1.012-0.296
		c-1.876,5.65,3.979,26.438,4.851,29.357c-0.252,0.085-8.476-27.441-6.001-30.337l0.696-0.38c-0.601-0.791-2.594-2.278-2.721-2.024
		c-0.127,0.253-0.665,1.17-0.949,2.625c-0.061,0.311-0.412-0.633-0.284-1.613c0.09-0.702,0.79-2.183,0.537-2.246
		s-0.421-0.338-1.012-0.253c-0.886,0.127-2.404,1.107-2.404,1.613c0,1.582,1.835,3.575,2.53,4.777
		c0.658,1.136,6.961,24.573,8.004,28.548c-0.106,0.057-1.63-4.697-2.446-7.754c-2.277-8.521-3.333-11.727-4.165-14.563
		c-0.65-2.215-1.424-4.851-2.056-5.915c-1.146-1.925-3.017-4.547-3.67-5.251c-0.729-0.785-2.136-3.354-2.306-2.358
		c-0.071,0.417-0.118,0.905-0.166,1.399c-0.166,1.783,1.347,4.631,1.483,4.878c1.133,2.028,1.6,3.198,1.99,4.798
		c1.019,4.178,4.954,13.265,6.397,16.308c1.141,2.405,3.914,8.202,5.064,10.659c0.507-0.084,3.516-1.628,5.145-1.94
		C305.699,133.336,307.34,134.27,307.672,133.62z"/>
	<path d="M195.329,133.62c0.209-0.59,0.46-1.359,0.762-2.099c0.131-0.466,0.531-1.85,0.819-2.477
		c0.348-0.759,3.396-11.283,3.553-11.884c0.159-0.601-0.03-2.499,0.729-1.74c0.668,0.669,0.748,11.053,0.757,13.519
		c1.281-5.483,0.483-13.734,0.677-17.167c0.212-3.754,3.375-7.719,3.881-8.14c0.507-0.422,0.97-0.422,1.013-0.296
		c1.875,5.65-3.979,26.438-4.852,29.357c0.252,0.085,8.476-27.441,6.001-30.337l-0.696-0.38c0.601-0.791,2.594-2.278,2.721-2.024
		c0.127,0.253,0.664,1.17,0.949,2.625c0.061,0.311,0.412-0.633,0.285-1.613c-0.092-0.702-0.791-2.183-0.538-2.246
		s0.421-0.338,1.012-0.253c0.886,0.127,2.404,1.107,2.404,1.613c0,1.582-1.835,3.575-2.53,4.777
		c-0.658,1.136-6.962,24.573-8.004,28.548c0.105,0.057,1.63-4.697,2.446-7.754c2.277-8.521,3.333-11.727,4.165-14.563
		c0.651-2.215,1.425-4.851,2.058-5.915c1.144-1.925,3.016-4.547,3.669-5.251c0.729-0.785,2.136-3.354,2.305-2.358
		c0.071,0.417,0.118,0.905,0.164,1.399c0.168,1.783-1.346,4.631-1.481,4.878c-1.133,2.028-1.602,3.198-1.99,4.798
		c-1.019,4.178-4.954,13.265-6.397,16.308c-1.142,2.405-3.914,8.202-5.064,10.659c-0.507-0.084-3.516-1.628-5.145-1.94
		C197.301,133.336,195.66,134.27,195.329,133.62z"/>
	<path d="M125.464,110.777c-0.369-1.251-2.412-9.957-1.167-13.263c1.246-3.307,1.712-1.945,1.868-1.907
		c0.156,0.04,2.622,3.379,4.2,7.118c0.741,1.751,2.283,6.888,2.491,11.708c0.232,5.407,3.668,15.826,5.833,18.708
		c0.232,0.311-0.816-0.233-1.401-0.973C136.747,131.483,129.043,122.912,125.464,110.777z"/>
	<path d="M39.195,110.777c0.369-1.251,2.412-9.957,1.167-13.263c-1.245-3.307-1.711-1.945-1.867-1.907
		c-0.156,0.04-2.622,3.379-4.201,7.118c-0.74,1.751-2.282,6.888-2.49,11.708c-0.232,5.407-3.669,15.826-5.833,18.708
		c-0.233,0.311,0.816-0.233,1.4-0.973C27.914,131.483,35.616,122.912,39.195,110.777z"/>
	<path d="M115.857,104.476c-0.136-0.245-1.644-3.085-1.479-4.862c0.157-1.671,0.332-3.288,1.362-2.178
		c1.011,1.089,4.938,5.484,7,9.762c0.983,2.039,5.135,13.886,6.261,20.887c1.22,7.565,1.129,11.981,0.74,11.125
		c-0.389-0.856-4.083-10.657-5.523-13.691c-1.438-3.034-5.362-12.092-6.378-16.257C117.453,107.665,116.986,106.499,115.857,104.476
		z"/>
	<path d="M48.802,104.476c0.136-0.245,1.644-3.085,1.479-4.862c-0.156-1.671-0.331-3.288-1.362-2.178
		c-1.011,1.089-4.939,5.484-7.001,9.762c-0.982,2.039-5.134,13.886-6.261,20.887c-1.22,7.565-1.128,11.981-0.74,11.125
		c0.39-0.856,4.084-10.657,5.524-13.691c1.438-3.034,5.363-12.092,6.377-16.257C47.208,107.665,47.674,106.499,48.802,104.476z"/>
</g>
<g id="deltoid" style="&st0;" class="group">
	<path d="M120.679,73.923c0,0-0.058-10.735-3.85-15.286c-3.792-4.551-10.734-7-11.26-6.942
		c-0.525,0.058-3.471,1.744-3.85,2.976c-0.234,0.758,1.459,7.001,4.668,10.618c3.208,3.617,9.79,5.673,11.26,6.359
		C119.396,72.464,120.679,73.923,120.679,73.923z"/>
	<path d="M43.98,73.923c0,0,0.058-10.735,3.85-15.286c3.792-4.551,10.735-7,11.26-6.942
		c0.525,0.058,3.472,1.744,3.851,2.976c0.233,0.758-1.458,7.001-4.667,10.618c-3.208,3.617-9.791,5.673-11.26,6.359
		C45.264,72.464,43.98,73.923,43.98,73.923z"/>
	<path d="M289.618,70.625c0,0,0.312-7.886-3.491-12.451c-3.047-3.655-7.907-5.863-9.994-6.568
		c-0.519-0.175-1.215-0.163-1.319-0.151c-0.24,0.026-2.304,0.633-3.796,2.236c-1.774,1.907-2.602,5.058-1.982,5.356
		c2.225,1.072,3.952,2.952,7.171,6.58C282.166,72.347,288.274,70.755,289.618,70.625z"/>
	<path d="M213.381,70.625c0,0-0.311-7.886,3.492-12.451c3.047-3.655,7.908-5.863,9.994-6.568
		c0.519-0.175,1.213-0.163,1.319-0.151c0.24,0.026,2.305,0.633,3.796,2.236c1.774,1.907,2.602,5.058,1.982,5.356
		c-2.224,1.072-3.952,2.952-7.171,6.58C220.833,72.347,214.725,70.755,213.381,70.625z"/>
</g>
<g id="peroneus-longus" style="&st0;" class="group">
		<path d="M94.134,203.152c-0.32-0.501,1.356,9.624-0.058,18.437c-1.284,7.992-2.45,15.46-2.509,16.628
			c-0.058,1.166-0.758,11.552-2.917,18.728c-1.643,5.46-3.559,8.46-3.559,8.109c0-0.35,2.532-6.207,3.326-9.51
			c1.459-6.067,1.808-16.045,0.992-21.587c-0.816-5.543-2.18-16.346-2.488-17.892c-0.069-0.344-0.7,2.879-1.555,5.758
			c-0.777,2.609-1.623,4.793-1.479,7.233c0.262,4.464,2.254,15.293,2.741,22.595c0.163,2.435,0.157,4.476-0.135,5.76
			c-0.23,1.009-1.406,3.324-1.751,4.473c-0.966,3.221-1.283,5.307-1.283,5.736c0,0.584,0.661-0.29,0.661-0.29s2.386-2.75,4.94-5.194
			c4.025-3.85,8.486-18.816,9.918-25.262C99.209,235.823,104.286,218.963,94.134,203.152z"/>
		<path d="M70.505,203.152c0.321-0.501-1.356,9.624,0.059,18.437c1.283,7.992,2.45,15.46,2.509,16.628
			c0.058,1.166,0.758,11.552,2.917,18.728c1.643,5.46,3.559,8.46,3.559,8.109c0-0.35-2.531-6.207-3.326-9.51
			c-1.458-6.067-1.808-16.045-0.991-21.587c0.817-5.543,2.18-16.346,2.488-17.892c0.07-0.344,0.701,2.879,1.557,5.758
			c0.775,2.609,1.622,4.793,1.478,7.233c-0.263,4.464-2.254,15.293-2.741,22.595c-0.163,2.435-0.157,4.476,0.135,5.76
			c0.23,1.009,1.406,3.324,1.751,4.473c0.968,3.221,1.283,5.307,1.283,5.736c0,0.584-0.662-0.29-0.662-0.29s-2.383-2.75-4.939-5.194
			c-4.026-3.85-8.487-18.816-9.918-25.262C65.43,235.823,60.354,218.963,70.505,203.152z"/>
			<path d="M262.223,230.441c-0.499-1.751,0.34-6.109,0.317-10.629c-0.042-8.457-0.768-13.673-0.126-16.956
			c0.213-1.094,1.31-2.441,1.455-2.404c0.506,0.127,0.584,0.576,0.759,1.013c3.349,8.372,5.119,17.108,5.059,22.967
			c-0.062,5.882-2.981,7.096-5.122,7.274C263.806,231.771,262.477,231.327,262.223,230.441z"/>
		<path d="M240.776,230.441c0.5-1.751-0.339-6.109-0.316-10.629c0.042-8.457,0.768-13.673,0.128-16.956
			c-0.215-1.094-1.312-2.441-1.457-2.404c-0.506,0.127-0.584,0.576-0.759,1.013c-3.349,8.372-5.119,17.108-5.059,22.967
			c0.062,5.882,2.98,7.096,5.123,7.274C239.195,231.771,240.523,231.327,240.776,230.441z"/>
	</g>
</svg>
