<?xml version="1.0" encoding="UTF-8" standalone="no"?>
<svg
   xmlns:dc="http://purl.org/dc/elements/1.1/"
   xmlns:cc="http://creativecommons.org/ns#"
   xmlns:rdf="http://www.w3.org/1999/02/22-rdf-syntax-ns#"
   xmlns:svg="http://www.w3.org/2000/svg"
   xmlns="http://www.w3.org/2000/svg"
   xmlns:sodipodi="http://sodipodi.sourceforge.net/DTD/sodipodi-0.dtd"
   xmlns:inkscape="http://www.inkscape.org/namespaces/inkscape"
   version="1.1"
   x="0px"
   y="0px"
   width="158.43785"
   height="311.19968"
   viewBox="0 0 158.43785 311.19968"
   xml:space="preserve"
   id="svg4453"
   inkscape:version="0.48.4 r9939"
   sodipodi:docname="muscles.svg"><metadata
   id="metadata4794"><rdf:RDF><cc:Work
       rdf:about=""><dc:format>image/svg+xml</dc:format><dc:type
         rdf:resource="http://purl.org/dc/dcmitype/StillImage" /><dc:title></dc:title></cc:Work></rdf:RDF></metadata><defs
   id="defs4792">
	
	
	
	

	
	
	
	
	
	

		
		
			
		
	</defs><sodipodi:namedview
   pagecolor="#ffffff"
   bordercolor="#666666"
   borderopacity="1"
   objecttolerance="10"
   gridtolerance="10"
   guidetolerance="10"
   inkscape:pageopacity="0"
   inkscape:pageshadow="2"
   inkscape:window-width="1280"
   inkscape:window-height="670"
   id="namedview4790"
   showgrid="false"
   fit-margin-top="10"
   fit-margin-left="10"
   fit-margin-right="10"
   fit-margin-bottom="10"
   inkscape:zoom="0.77377049"
   inkscape:cx="-206.89135"
   inkscape:cy="153.17167"
   inkscape:window-x="-8"
   inkscape:window-y="-8"
   inkscape:window-maximized="1"
   inkscape:current-layer="svg4453" />

	 <script
   type="text/ecmascript"
   id="script4455">

  </script>


<g
   id="male-back"
   style="fill:#2969ab;fill-opacity:1"
   transform="translate(-172.28118,5.528)">
	<g
   id="other-back"
   style="fill:#2969ab;fill-opacity:1">
		<path
   d="m 263.186,28.543 c 0,0 1.49,-6.353 1.835,-6.985 0.233,-0.428 1.13,0.391 1.325,0.625 0.196,0.234 0.82,0.859 0.548,1.327 -0.275,0.468 -2.304,5.383 -2.81,5.54 -0.509,0.156 -0.977,-0.077 -0.898,-0.507 z"
   id="path4610"
   inkscape:connector-curvature="0"
   style="fill:#2969ab;fill-opacity:1" />
		<path
   d="m 300.121,106.583 c -0.092,0.092 -1.462,-2.018 -3.248,-3.965 -2.079,-2.269 -3.895,-3.767 -4.28,-4.281 -0.126,-0.169 0.063,-5.589 0.569,-5.547 0.161,0.014 4.483,5.464 5.904,9.28 0.675,1.814 1.265,4.302 1.055,4.513 z"
   id="path4612"
   inkscape:connector-curvature="0"
   style="fill:#2969ab;fill-opacity:1" />
		<path
   d="m 303.378,152.677 c 0,0 3.284,6.914 4.094,7.146 0.809,0.23 1.071,-0.167 0.824,-0.726 -0.249,-0.559 -2.162,-4.938 -2.47,-5.031 -0.308,-0.094 -2.577,-1.982 -2.448,-1.389 z"
   id="path4614"
   inkscape:connector-curvature="0"
   style="fill:#2969ab;fill-opacity:1" />
		<path
   d="m 309.074,158.048 c 0.731,1.644 1.094,3.026 1.648,3.735 0.48,0.612 1.783,0.724 1.911,0.496 0.128,-0.229 0.342,-0.621 0.086,-1.062 -0.198,-0.345 -3.459,-8.639 -4.502,-9.534 -0.269,-0.231 -1.202,0.956 -1.336,1.229 -0.128,0.268 1.142,2.771 2.193,5.136 z"
   id="path4616"
   inkscape:connector-curvature="0"
   style="fill:#2969ab;fill-opacity:1" />
		<path
   d="m 310.095,148.34 c -0.435,0.397 -1.173,1.977 -1.245,2.288 -0.034,0.153 1.957,4.042 2.628,5.418 0.467,0.959 2.299,5.322 2.674,5.716 0.615,0.642 1.845,1.312 2.271,-0.397 0.172,-0.681 -6.114,-13.22 -6.328,-13.025 z"
   id="path4618"
   inkscape:connector-curvature="0"
   style="fill:#2969ab;fill-opacity:1" />
		<path
   d="m 312.349,146.421 c -0.277,-0.364 -1.917,0.519 -1.606,1.393 0.173,0.482 4.526,8.833 5.077,9.599 0.551,0.766 0.934,1.829 1.59,1.126 0.459,-0.49 0.483,-1.594 -1.847,-5.823 -0.795,-1.443 -2.43,-5.26 -3.214,-6.295 z"
   id="path4620"
   inkscape:connector-curvature="0"
   style="fill:#2969ab;fill-opacity:1" />
		<path
   d="m 256.34,238.097 c 1.45,-0.279 3.923,-1.454 5.062,-5.061 0.713,0.648 2.783,0.442 4.871,-0.254 0.075,-0.025 -1.312,4.302 -2.91,9.808 -1.907,6.568 -3.304,13.841 -3.228,13.792 0.077,-0.05 1.818,-7.126 3.86,-13.729 1.756,-5.679 3.854,-11.022 3.913,-11.068 1.034,-0.812 1.583,-1.836 1.583,-1.836 -0.385,4.089 -1.611,6.89 -1.763,7.271 -2.01,5.064 -4.114,11.896 -6.043,18.911 -0.348,1.714 0.047,4.06 0.096,5.512 0.088,2.695 0.158,3.701 -0.043,4.07 -0.212,-4.598 -1.898,-5.862 -2.277,-6.243 -1.814,-1.729 -4.387,-1.813 -5.905,-0.296 0.292,-1.287 1.962,-4.302 2.274,-7.195 0.153,-1.406 -0.597,-5.85 -0.622,-6.048 -0.4,-3.098 -0.897,-6.305 -1.315,-9.279 0,0 0.801,1.961 2.447,1.645 z"
   id="path4622"
   inkscape:connector-curvature="0"
   style="fill:#2969ab;fill-opacity:1" />
		<path
   d="m 252.543,263.72 c 0.443,-2.024 0.51,-2.577 1.709,-3.858 1.195,-1.282 3.725,-0.472 4.956,0.76 0.59,0.59 1.94,5.187 1.753,5.542 -1.091,2.065 -4.298,3.849 -5.424,5.195 -1.127,1.349 -2.223,6.281 -2.43,6.208 -0.494,-0.178 -0.821,-12.668 -0.564,-13.847 z"
   id="path4624"
   inkscape:connector-curvature="0"
   style="fill:#2969ab;fill-opacity:1" />
		<path
   d="m 252.933,288.555 c 0,0 -0.372,-7.614 0.353,-8.981 0.723,-1.369 1.538,-5.773 3.723,-7.698 2.376,-2.089 3.838,-4.018 4.004,-3.814 0.166,0.202 -0.623,2.492 1.15,9.724 0.207,0.847 -2.54,3.005 -3.429,3.662 -0.892,0.657 -5.358,4.574 -5.801,7.107 z"
   id="path4626"
   inkscape:connector-curvature="0"
   style="fill:#2969ab;fill-opacity:1" />
		<path
   d="m 252.849,292.506 c 0,0 -0.353,2.202 -0.118,2.735 0.235,0.533 1.833,0.463 1.95,0.355 0.116,-0.105 1.796,-0.533 1.756,-1.314 -0.018,-0.337 0.027,-1.383 -0.155,-2.487 -0.053,-0.326 -0.204,-1.061 -0.274,-1.386 -0.242,-1.14 -0.289,-2.041 -0.271,-2.419 0.038,-0.852 0,-2.272 0,-2.272 0,0 -2.536,2.523 -2.966,5.331 -0.086,0.555 -0.08,0.995 0.078,1.457 z"
   id="path4628"
   inkscape:connector-curvature="0"
   style="fill:#2969ab;fill-opacity:1" />
		<path
   d="m 256.791,285.545 c -0.057,0.309 0,2.364 0.148,2.804 0.149,0.438 0.706,2.936 0.741,3.576 0.037,0.643 1.594,0.61 1.78,0.475 0.184,-0.136 0.853,-0.812 0.853,-0.812 0,0 0.791,-0.271 0.964,-0.403 0.258,-0.203 0.332,-0.373 0.332,-0.373 0,0 1.445,-0.608 1.595,-1.654 0,0 1.186,-0.877 1.149,-1.114 -0.039,-0.236 -0.075,-0.574 -0.148,-1.147 -0.076,-0.574 0.036,-0.843 0.111,-1.586 0.073,-0.743 -1.52,-6.077 -1.779,-6.481 -0.372,3.103 -5.3,4.317 -5.746,6.715 z"
   id="path4630"
   inkscape:connector-curvature="0"
   style="fill:#2969ab;fill-opacity:1" />
		<path
   d="m 259.377,38.675 c -0.067,-1.296 -0.148,-4.787 -0.865,-6.833 -0.328,-0.936 -1.109,-2.787 -1.792,-3.374 0,0 0.315,10.081 1.74,12.833 1.423,2.751 2.297,3.128 2.183,2.942 -1.013,-1.625 -1.114,-2.604 -1.266,-5.568 z"
   id="path4632"
   inkscape:connector-curvature="0"
   style="fill:#2969ab;fill-opacity:1" />
		<path
   d="m 277.092,71.638 c -0.063,0.506 -0.616,0.877 -0.792,0.981 -0.996,0.589 -6.231,3.859 -13.159,1.834 -0.418,-0.122 -0.783,-0.576 -0.77,-0.643 0.263,-1.255 4.766,-4.598 5.989,-12.738 0.092,-0.607 0.919,-0.588 1.328,-0.348 1.139,0.669 2.469,1.719 4.367,4.103 1.897,2.382 3.064,6.589 3.037,6.811 z"
   id="path4634"
   inkscape:connector-curvature="0"
   style="fill:#2969ab;fill-opacity:1" />
		<path
   d="m 281.1,89.036 c -0.697,-0.876 -1.729,-2.446 -1.729,-2.446 0,0 2.952,7.887 4.175,8.942 1.225,1.054 1.393,0.844 1.393,0.506 -0.001,-0.314 -3.037,-5.991 -3.839,-7.002 z"
   id="path4636"
   inkscape:connector-curvature="0"
   style="fill:#2969ab;fill-opacity:1" />
		<path
   d="m 311.514,144.441 v -0.001 c -0.146,-0.301 -0.315,-0.609 -0.487,-0.863 -0.07,-0.148 -0.137,-0.308 -0.196,-0.471 -0.393,-1.01 -2.317,-6.993 -4.033,-7.988 -0.578,-0.334 -1.988,-0.751 -3.133,-0.275 -2.024,0.844 -4.16,1.759 -4.16,1.871 0.002,0.128 -0.101,3.225 -0.146,4.236 -0.08,1.775 -0.024,3.342 0.101,3.868 0.32,1.344 1.445,4.858 3.629,6.52 1.473,1.119 2.66,1.643 2.626,1.522 0,0 1.104,-0.631 1.73,-1.548 0.021,-0.029 0.044,-0.061 0.065,-0.091 0.001,-0.003 0.005,-0.006 0.006,-0.009 v -10e-4 c 0.524,-0.737 1.252,-2.077 2.039,-3.882 0.709,-1.621 2.44,-1.257 2.35,-1.848 -0.034,-0.207 -0.188,-0.615 -0.391,-1.04 z"
   id="path4638"
   inkscape:connector-curvature="0"
   style="fill:#2969ab;fill-opacity:1" />
		<path
   d="m 320.629,145.092 c -0.161,-0.052 -1.599,-0.824 -2.909,-1.49 -0.008,-0.013 -0.022,-0.023 -0.046,-0.023 l 0,0 c -1.846,-0.836 -3.701,-4.325 -5.192,-5.842 -1.2,-1.224 -2.283,-2.105 -3.362,-2.542 0,0 -1.185,-0.564 -0.96,-0.161 1.087,1.957 3.604,7.742 3.604,7.742 l 0.003,0 c 0.34,0.798 1.695,3.042 2.425,3.042 0.859,0 2.847,0.948 4.285,1.09 1.437,0.142 2.577,-1.68 2.152,-1.816 z"
   id="path4640"
   inkscape:connector-curvature="0"
   style="fill:#2969ab;fill-opacity:1" />
		<path
   d="m 261.991,117.001 c 0,0 0.098,0.238 0.345,0.292 1.445,0.319 6.563,1.605 8.618,4.2 0,0 -1.144,-5.181 -6.011,-9.237 -0.379,-0.316 -0.822,-0.38 -1.074,0 -0.255,0.38 -1.71,3.142 -1.878,4.745 z"
   id="path4642"
   inkscape:connector-curvature="0"
   style="fill:#2969ab;fill-opacity:1" />
		<path
   d="m 265.62,111.729 c 0,0 1.524,1.251 3.5,4.007 1.429,1.994 3.068,5.124 4.344,8.436 0.417,1.083 2.15,3.838 2.067,1.687 -0.084,-2.15 -0.928,-9.954 -3.163,-12.442 -2.235,-2.488 -4.865,-3.423 -6.454,-2.953 -1.139,0.336 -0.294,1.265 -0.294,1.265 z"
   id="path4644"
   inkscape:connector-curvature="0"
   style="fill:#2969ab;fill-opacity:1" />
		<path
   d="m 269.541,109.113 c 0,0 2.067,0.717 4.007,3.923 0.109,0.18 0.718,0.211 0.76,-0.464 0.041,-0.675 -0.708,-6.393 -0.97,-6.917 -0.169,-0.337 -0.633,0.042 -0.633,0.042 0,0 -1.94,2.404 -3.164,3.416 z"
   id="path4646"
   inkscape:connector-curvature="0"
   style="fill:#2969ab;fill-opacity:1" />
		<path
   d="m 258.554,199.693 c 0.57,-0.507 2.784,-4.113 3.164,-6.074 0,0 1.961,4.176 1.834,4.618 -0.127,0.443 -0.696,0.823 -1.075,1.456 -0.381,0.633 -1.265,3.227 -1.328,3.543 -0.063,0.316 -1.835,-2.215 -2.531,-2.468 -0.696,-0.252 -0.064,-1.075 -0.064,-1.075 z"
   id="path4648"
   inkscape:connector-curvature="0"
   style="fill:#2969ab;fill-opacity:1" />
		<path
   d="m 202.878,106.583 c 0.093,0.092 1.463,-2.018 3.249,-3.965 2.079,-2.269 3.895,-3.767 4.281,-4.281 0.127,-0.169 -0.064,-5.589 -0.57,-5.547 -0.161,0.014 -4.484,5.464 -5.904,9.28 -0.675,1.814 -1.265,4.302 -1.056,4.513 z"
   id="path4650"
   inkscape:connector-curvature="0"
   style="fill:#2969ab;fill-opacity:1" />
		<path
   d="m 199.622,152.677 c 0,0 -3.284,6.914 -4.094,7.146 -0.811,0.23 -1.071,-0.167 -0.823,-0.726 0.248,-0.559 2.161,-4.938 2.469,-5.031 0.308,-0.094 2.577,-1.982 2.448,-1.389 z"
   id="path4652"
   inkscape:connector-curvature="0"
   style="fill:#2969ab;fill-opacity:1" />
		<path
   d="m 193.926,158.048 c -0.731,1.644 -1.096,3.026 -1.649,3.735 -0.479,0.612 -1.783,0.724 -1.91,0.496 -0.128,-0.229 -0.342,-0.621 -0.086,-1.062 0.199,-0.345 3.459,-8.639 4.502,-9.534 0.269,-0.231 1.202,0.956 1.335,1.229 0.129,0.268 -1.141,2.771 -2.192,5.136 z"
   id="path4654"
   inkscape:connector-curvature="0"
   style="fill:#2969ab;fill-opacity:1" />
		<path
   d="m 192.904,148.34 c 0.437,0.397 1.176,1.977 1.245,2.288 0.036,0.153 -1.956,4.042 -2.627,5.418 -0.466,0.959 -2.298,5.322 -2.674,5.716 -0.615,0.642 -1.845,1.312 -2.271,-0.397 -0.173,-0.681 6.114,-13.22 6.327,-13.025 z"
   id="path4656"
   inkscape:connector-curvature="0"
   style="fill:#2969ab;fill-opacity:1" />
		<path
   d="m 246.66,238.097 c -1.45,-0.279 -3.923,-1.454 -5.061,-5.061 -0.714,0.648 -2.785,0.442 -4.873,-0.254 -0.074,-0.025 1.313,4.302 2.911,9.808 1.907,6.568 3.304,13.841 3.227,13.792 -0.077,-0.05 -1.817,-7.126 -3.859,-13.729 -1.756,-5.679 -3.854,-11.022 -3.914,-11.068 -1.033,-0.812 -1.583,-1.836 -1.583,-1.836 0.386,4.089 1.612,6.89 1.765,7.271 2.009,5.064 4.111,11.896 6.042,18.911 0.348,1.714 -0.047,4.06 -0.096,5.512 -0.088,2.695 -0.158,3.701 0.043,4.07 0.21,-4.598 1.898,-5.862 2.277,-6.243 1.813,-1.729 4.387,-1.813 5.905,-0.296 -0.293,-1.287 -1.962,-4.302 -2.275,-7.195 -0.152,-1.406 0.597,-5.85 0.623,-6.048 0.4,-3.098 0.898,-6.305 1.315,-9.279 0,0 -0.801,1.961 -2.447,1.645 z"
   id="path4658"
   inkscape:connector-curvature="0"
   style="fill:#2969ab;fill-opacity:1" />
		<path
   d="m 250.457,263.72 c -0.443,-2.024 -0.51,-2.577 -1.709,-3.858 -1.195,-1.282 -3.725,-0.472 -4.956,0.76 -0.591,0.59 -1.94,5.187 -1.753,5.542 1.091,2.065 4.298,3.849 5.424,5.195 1.127,1.349 2.222,6.281 2.429,6.208 0.495,-0.178 0.822,-12.668 0.565,-13.847 z"
   id="path4660"
   inkscape:connector-curvature="0"
   style="fill:#2969ab;fill-opacity:1" />
		<path
   d="m 250.069,288.555 c 0,0 0.37,-7.614 -0.354,-8.981 -0.723,-1.369 -1.537,-5.773 -3.723,-7.698 -2.376,-2.089 -3.838,-4.018 -4.004,-3.814 -0.166,0.202 0.624,2.492 -1.15,9.724 -0.207,0.847 2.54,3.005 3.429,3.662 0.891,0.657 5.357,4.574 5.802,7.107 z"
   id="path4662"
   inkscape:connector-curvature="0"
   style="fill:#2969ab;fill-opacity:1" />
		<path
   d="m 250.151,292.506 c 0,0 0.353,2.202 0.118,2.735 -0.235,0.533 -1.833,0.463 -1.949,0.355 -0.117,-0.105 -1.797,-0.533 -1.757,-1.314 0.018,-0.337 -0.027,-1.383 0.155,-2.487 0.053,-0.326 0.204,-1.061 0.274,-1.386 0.242,-1.14 0.289,-2.041 0.271,-2.419 -0.039,-0.852 0,-2.272 0,-2.272 0,0 2.536,2.523 2.966,5.331 0.086,0.555 0.078,0.995 -0.078,1.457 z"
   id="path4664"
   inkscape:connector-curvature="0"
   style="fill:#2969ab;fill-opacity:1" />
		<path
   d="m 246.209,285.545 c 0.057,0.309 0,2.364 -0.148,2.804 -0.149,0.438 -0.706,2.936 -0.743,3.576 -0.035,0.643 -1.592,0.61 -1.778,0.475 -0.184,-0.136 -0.853,-0.812 -0.853,-0.812 0,0 -0.792,-0.271 -0.964,-0.403 -0.256,-0.203 -0.332,-0.373 -0.332,-0.373 0,0 -1.445,-0.608 -1.595,-1.654 0,0 -1.185,-0.877 -1.148,-1.114 0.038,-0.236 0.074,-0.574 0.147,-1.147 0.076,-0.574 -0.036,-0.843 -0.111,-1.586 -0.072,-0.743 1.52,-6.077 1.779,-6.481 0.371,3.103 5.299,4.317 5.746,6.715 z"
   id="path4666"
   inkscape:connector-curvature="0"
   style="fill:#2969ab;fill-opacity:1" />
		<path
   d="m 243.624,38.675 c 0.067,-1.296 0.146,-4.787 0.864,-6.833 0.328,-0.936 1.109,-2.787 1.791,-3.374 0,0 -0.314,10.081 -1.739,12.833 -1.423,2.751 -2.298,3.128 -2.181,2.942 1.011,-1.625 1.112,-2.604 1.265,-5.568 z"
   id="path4668"
   inkscape:connector-curvature="0"
   style="fill:#2969ab;fill-opacity:1" />
		<path
   d="m 225.908,71.638 c 0.063,0.506 0.617,0.877 0.792,0.981 0.996,0.589 6.23,3.859 13.159,1.834 0.418,-0.122 0.783,-0.576 0.77,-0.643 -0.264,-1.255 -4.766,-4.598 -5.989,-12.738 -0.092,-0.607 -0.919,-0.588 -1.329,-0.348 -1.137,0.669 -2.468,1.719 -4.366,4.103 -1.897,2.382 -3.064,6.589 -3.037,6.811 z"
   id="path4670"
   inkscape:connector-curvature="0"
   style="fill:#2969ab;fill-opacity:1" />
		<path
   d="m 221.9,89.036 c 0.697,-0.876 1.73,-2.446 1.73,-2.446 0,0 -2.953,7.887 -4.176,8.942 -1.225,1.054 -1.393,0.844 -1.393,0.506 0.001,-0.314 3.037,-5.991 3.839,-7.002 z"
   id="path4672"
   inkscape:connector-curvature="0"
   style="fill:#2969ab;fill-opacity:1" />
		<path
   d="m 191.486,144.441 v -0.001 c 0.146,-0.301 0.315,-0.609 0.486,-0.863 0.071,-0.148 0.138,-0.308 0.197,-0.471 0.394,-1.01 2.317,-6.993 4.033,-7.988 0.578,-0.334 1.988,-0.751 3.132,-0.275 2.024,0.844 4.161,1.759 4.161,1.871 -0.002,0.128 0.102,3.225 0.146,4.236 0.08,1.775 0.024,3.342 -0.101,3.868 -0.32,1.344 -1.446,4.858 -3.63,6.52 -1.473,1.119 -2.659,1.643 -2.625,1.522 0,0 -1.104,-0.631 -1.73,-1.548 -0.021,-0.029 -0.044,-0.061 -0.065,-0.091 -0.001,-0.003 -0.003,-0.006 -0.006,-0.009 0,0 0,-10e-4 -0.001,-10e-4 -0.523,-0.737 -1.251,-2.077 -2.038,-3.882 -0.708,-1.621 -2.44,-1.257 -2.35,-1.848 0.034,-0.207 0.187,-0.615 0.391,-1.04 z"
   id="path4674"
   inkscape:connector-curvature="0"
   style="fill:#2969ab;fill-opacity:1" />
		<path
   d="m 182.371,145.092 c 0.161,-0.052 1.599,-0.824 2.908,-1.49 0.009,-0.013 0.023,-0.023 0.047,-0.023 l 0,0 c 1.846,-0.836 3.701,-4.325 5.192,-5.842 1.2,-1.224 2.283,-2.105 3.362,-2.542 0,0 1.185,-0.564 0.96,-0.161 -1.086,1.957 -3.604,7.742 -3.604,7.742 l -0.003,0 c -0.34,0.798 -1.695,3.042 -2.425,3.042 -0.86,0 -2.849,0.948 -4.286,1.09 -1.438,0.142 -2.575,-1.68 -2.151,-1.816 z"
   id="path4676"
   inkscape:connector-curvature="0"
   style="fill:#2969ab;fill-opacity:1" />
		<path
   d="m 241.009,117.001 c 0,0 -0.098,0.238 -0.345,0.292 -1.445,0.319 -6.564,1.605 -8.619,4.2 0,0 1.145,-5.181 6.012,-9.237 0.38,-0.316 0.821,-0.38 1.074,0 0.253,0.38 1.709,3.142 1.878,4.745 z"
   id="path4678"
   inkscape:connector-curvature="0"
   style="fill:#2969ab;fill-opacity:1" />
		<path
   d="m 237.38,111.729 c 0,0 -1.524,1.251 -3.499,4.007 -1.432,1.994 -3.069,5.124 -4.345,8.436 -0.418,1.083 -2.151,3.838 -2.067,1.687 0.085,-2.15 0.928,-9.954 3.163,-12.442 2.235,-2.488 4.865,-3.423 6.454,-2.953 1.139,0.336 0.294,1.265 0.294,1.265 z"
   id="path4680"
   inkscape:connector-curvature="0"
   style="fill:#2969ab;fill-opacity:1" />
		<path
   d="m 233.459,109.113 c 0,0 -2.067,0.717 -4.007,3.923 -0.111,0.18 -0.718,0.211 -0.76,-0.464 -0.042,-0.675 0.709,-6.393 0.97,-6.917 0.169,-0.337 0.633,0.042 0.633,0.042 0,0 1.94,2.404 3.164,3.416 z"
   id="path4682"
   inkscape:connector-curvature="0"
   style="fill:#2969ab;fill-opacity:1" />
		<path
   d="m 244.446,199.693 c -0.57,-0.507 -2.784,-4.113 -3.164,-6.074 0,0 -1.96,4.176 -1.834,4.618 0.127,0.443 0.695,0.823 1.075,1.456 0.379,0.633 1.265,3.227 1.328,3.543 0.063,0.316 1.835,-2.215 2.531,-2.468 0.696,-0.252 0.064,-1.075 0.064,-1.075 z"
   id="path4684"
   inkscape:connector-curvature="0"
   style="fill:#2969ab;fill-opacity:1" />
		<path
   d="m 240.067,28.543 c 0,0 -1.488,-6.353 -1.835,-6.985 -0.233,-0.428 -1.131,0.391 -1.326,0.625 -0.195,0.234 -0.819,0.859 -0.547,1.327 0.275,0.468 2.303,5.383 2.81,5.54 0.509,0.156 0.977,-0.077 0.898,-0.507 z"
   id="path4686"
   inkscape:connector-curvature="0"
   style="fill:#2969ab;fill-opacity:1" />
		<path
   d="M 262.506,11.584 C 261.57,9.634 260.115,7.694 258.361,6.556 257.056,5.71 255.154,4.743 252.077,4.475 252.06,4.474 251.918,4.473 251.744,4.472 l 0,0 c -0.041,0 -0.078,0 -0.117,0 -0.039,0 -0.077,0 -0.118,0 l 0,0 c -0.173,10e-4 -0.314,0.002 -0.333,0.003 -3.078,0.268 -4.979,1.235 -6.283,2.081 -1.755,1.138 -3.21,3.078 -4.145,5.028 -0.782,1.627 -1.427,4.566 -1.361,7.09 0.061,2.333 0.202,3.463 0.609,5.786 0.212,1.204 0.748,3.301 0.91,4.626 0.226,1.847 0.42,5.856 0.693,6.635 0.122,0.351 0.683,0.822 1.44,1.312 0.234,-3.061 0.867,-8.071 3.716,-10.19 1.112,-0.829 3.008,-1.479 4.871,-1.56 1.862,0.081 3.758,0.731 4.871,1.56 2.847,2.12 3.48,7.129 3.715,10.19 0.758,-0.49 1.317,-0.961 1.44,-1.312 0.272,-0.779 0.468,-4.788 0.693,-6.635 0.161,-1.326 0.698,-3.422 0.91,-4.626 0.408,-2.322 0.549,-3.452 0.609,-5.786 0.069,-2.523 -0.577,-5.463 -1.358,-7.09 z"
   id="path4688"
   inkscape:connector-curvature="0"
   style="fill:#2969ab;fill-opacity:1" />
		<g
   id="g4690"
   style="fill:#2969ab;fill-opacity:1">
			<path
   d="m 251.634,40.296 -0.015,10e-4 c -0.117,3.028 -0.807,6.748 -4.58,8.585 0,0 2.908,2.043 3.923,5.778 0.591,2.172 0.65,3.643 0.65,3.643 0,0 0.108,-1.281 0.679,-3.643 0.907,-3.762 3.922,-5.778 3.922,-5.778 -3.772,-1.838 -4.462,-5.557 -4.579,-8.586 z"
   id="path4692"
   inkscape:connector-curvature="0"
   style="fill:#2969ab;fill-opacity:1" />
		</g>
		<path
   d="m 190.651,146.421 c 0.277,-0.364 1.917,0.519 1.606,1.393 -0.173,0.482 -4.526,8.833 -5.077,9.599 -0.551,0.766 -0.934,1.829 -1.59,1.126 -0.459,-0.49 -0.484,-1.594 1.847,-5.823 0.796,-1.443 2.43,-5.26 3.214,-6.295 z"
   id="path4694"
   inkscape:connector-curvature="0"
   style="fill:#2969ab;fill-opacity:1" />
	</g>
	<g
   id="triceps-branchii"
   class="group"
   style="fill:#2969ab;fill-opacity:1">
		<path
   d="m 281.984,71.068 c 0.381,0 3.712,1.603 6.58,0.759 0.619,-0.182 3.079,7.424 2.7,9.996 -0.096,0.644 -0.241,1.062 -0.423,1.351 -0.545,0.864 -1.487,0.253 -1.771,0.126 -0.38,-0.168 -3.839,-3.458 -4.219,-4.809 -0.232,-0.827 -3.246,-7.423 -2.867,-7.423 z"
   id="path4697"
   inkscape:connector-curvature="0"
   style="fill:#2969ab;fill-opacity:1" />
		<path
   d="m 280.677,71.406 c 2.099,3.965 3.729,5.413 4.091,11.557 0.254,4.302 -1.054,6.917 -2.488,5.778 -1.435,-1.139 -3.584,-4.851 -3.88,-7.761 -0.296,-2.91 0.199,-10.545 0.843,-10.545 0.716,0 1.055,0.338 1.434,0.971 z"
   id="path4699"
   inkscape:connector-curvature="0"
   style="fill:#2969ab;fill-opacity:1" />
		<path
   d="m 285.823,82.014 c 0,0 0.906,6.728 -2.784,7.845 0,0 3.858,8.541 4.428,8.288 0.57,-0.253 1.772,-0.674 2.489,-0.843 0.246,-0.058 0.942,0.133 1.055,-0.295 0.323,-1.242 0.7,-2.757 0.717,-4.766 0.029,-3.349 -0.568,-7.452 -1.286,-7.318 -1.709,0.315 -4.619,-2.911 -4.619,-2.911 z"
   id="path4701"
   inkscape:connector-curvature="0"
   style="fill:#2969ab;fill-opacity:1" />
		<path
   d="m 221.015,71.068 c -0.38,0 -3.711,1.603 -6.579,0.759 -0.62,-0.182 -3.079,7.424 -2.7,9.996 0.095,0.644 0.241,1.062 0.423,1.351 0.545,0.864 1.486,0.253 1.771,0.126 0.379,-0.168 3.84,-3.458 4.22,-4.809 0.231,-0.827 3.245,-7.423 2.865,-7.423 z"
   id="path4703"
   inkscape:connector-curvature="0"
   style="fill:#2969ab;fill-opacity:1" />
		<path
   d="m 222.323,71.406 c -2.098,3.965 -3.731,5.413 -4.093,11.557 -0.253,4.302 1.054,6.917 2.49,5.778 1.433,-1.139 3.584,-4.851 3.88,-7.761 0.296,-2.91 -0.199,-10.545 -0.843,-10.545 -0.718,0 -1.055,0.338 -1.434,0.971 z"
   id="path4705"
   inkscape:connector-curvature="0"
   style="fill:#2969ab;fill-opacity:1" />
		<path
   d="m 217.177,82.014 c 0,0 -0.906,6.728 2.784,7.845 0,0 -3.859,8.541 -4.429,8.288 -0.568,-0.253 -1.771,-0.674 -2.488,-0.843 -0.246,-0.058 -0.942,0.133 -1.055,-0.295 -0.325,-1.242 -0.7,-2.757 -0.717,-4.766 -0.029,-3.349 0.568,-7.452 1.287,-7.318 1.708,0.315 4.618,-2.911 4.618,-2.911 z"
   id="path4707"
   inkscape:connector-curvature="0"
   style="fill:#2969ab;fill-opacity:1" />
	</g>
	<g
   id="semimembranosus"
   class="group"
   style="fill:#2969ab;fill-opacity:1">
		<path
   d="m 253.994,185.753 c 0.26,-5.664 0.765,-10.61 0.384,-17.441 -0.136,-2.438 -0.822,-5.503 -1.286,-7.613 0,1.736 -0.248,21.856 -0.439,28.112 -0.036,1.187 -0.038,2.159 -0.014,2.957 -0.131,5.82 0.516,12.34 2.706,18.934 0.177,0.536 -1.71,-17.138 -1.351,-24.949 z"
   id="path4710"
   inkscape:connector-curvature="0"
   style="fill:#2969ab;fill-opacity:1" />
		<path
   d="m 249.006,185.753 c -0.26,-5.664 -0.764,-10.61 -0.384,-17.441 0.136,-2.438 0.821,-5.503 1.286,-7.613 0,1.736 0.248,21.856 0.439,28.112 0.036,1.187 0.038,2.159 0.014,2.957 0.131,5.82 -0.516,12.34 -2.706,18.934 -0.179,0.536 1.71,-17.138 1.351,-24.949 z"
   id="path4712"
   inkscape:connector-curvature="0"
   style="fill:#2969ab;fill-opacity:1" />
	</g>
	<g
   id="semitendinosus"
   class="group"
   style="fill:#2969ab;fill-opacity:1">
		<path
   d="m 252.797,144.586 c 0,0 4.386,22.819 2.192,41.884 -0.546,4.741 -0.084,12.062 0.845,17.716 0,0 0.169,-3.037 0.59,-3.46 2.093,-2.095 3.895,-4.715 4.692,-7.613 0.285,-1.032 0.073,-2.129 -0.137,-2.974 -0.205,-0.822 -0.824,-1.868 -1.266,0.507 -0.886,4.766 -2.488,6.357 -2.488,6.357 0,0 2.657,-8.889 3.67,-17.367 0.418,-3.5 0.347,-21.922 0,-27.71 -0.096,-1.587 -1.266,-3.828 -2.215,-4.524 -0.654,-0.48 -4.144,-2.151 -4.809,-3.448 -0.233,-0.458 -1.117,-0.464 -1.074,0.632 z"
   id="path4715"
   inkscape:connector-curvature="0"
   style="fill:#2969ab;fill-opacity:1" />
		<path
   d="m 250.203,144.586 c 0,0 -4.386,22.819 -2.193,41.884 0.547,4.741 0.085,12.062 -0.844,17.716 0,0 -0.169,-3.037 -0.59,-3.46 -2.094,-2.095 -3.895,-4.715 -4.692,-7.613 -0.284,-1.032 -0.073,-2.129 0.137,-2.974 0.205,-0.822 0.824,-1.868 1.266,0.507 0.886,4.766 2.488,6.357 2.488,6.357 0,0 -2.657,-8.889 -3.67,-17.367 -0.417,-3.5 -0.349,-21.922 0,-27.71 0.096,-1.587 1.266,-3.828 2.215,-4.524 0.654,-0.48 4.144,-2.151 4.809,-3.448 0.233,-0.458 1.117,-0.464 1.074,0.632 z"
   id="path4717"
   inkscape:connector-curvature="0"
   style="fill:#2969ab;fill-opacity:1" />
	</g>
	<g
   id="biceps-femoris"
   class="group"
   style="fill:#2969ab;fill-opacity:1">
		<path
   d="m 262.92,153.485 c 0.104,-1.06 0.253,-1.855 0.59,-2.614 0.263,-0.588 4.963,1.521 5.146,2.698 0.907,5.821 2.552,14.806 0.528,29.737 -0.653,4.806 -0.384,7.406 -0.633,14.868 -0.126,3.796 -0.887,5.631 -1.392,6.39 -0.833,-3.745 -0.994,-3.755 -3.227,-10.06 -1.592,-4.49 -1.983,-9.152 -1.582,-15.943 0.7,-11.844 -0.391,-15.298 0.57,-25.076 z"
   id="path4720"
   inkscape:connector-curvature="0"
   style="fill:#2969ab;fill-opacity:1" />
		<path
   d="m 240.08,153.485 c -0.104,-1.06 -0.253,-1.855 -0.59,-2.614 -0.263,-0.588 -4.963,1.521 -5.147,2.698 -0.906,5.821 -2.551,14.806 -0.526,29.737 0.652,4.806 0.384,7.406 0.633,14.868 0.126,3.796 0.886,5.631 1.392,6.39 0.833,-3.745 0.994,-3.755 3.229,-10.06 1.59,-4.49 1.981,-9.152 1.58,-15.943 -0.701,-11.844 0.39,-15.298 -0.571,-25.076 z"
   id="path4722"
   inkscape:connector-curvature="0"
   style="fill:#2969ab;fill-opacity:1" />
		<path
   d="m 276.112,139.967 0,0 0,0 c -0.041,-2.51 -0.016,-4.566 -0.402,-5.812 -0.611,-1.969 -9.002,-0.686 -6.085,17.011 1.898,11.515 1.351,17.951 1.351,22.145 0,2.657 -0.718,10.06 -0.718,10.06 0,0 1.524,-6.03 2.217,-9.398 0.002,-0.003 0.002,-0.005 0.002,-0.006 0.396,-1.771 1.689,-7.893 2.688,-16.48 0.76,-6.538 1.025,-12.874 0.947,-17.52 z"
   id="path4724"
   inkscape:connector-curvature="0"
   style="fill:#2969ab;fill-opacity:1" />
		<path
   d="m 226.887,139.967 0,0 0,0 c 0.042,-2.51 0.018,-4.566 0.404,-5.812 0.61,-1.969 9.001,-0.686 6.084,17.011 -1.898,11.515 -1.351,17.951 -1.351,22.145 0,2.657 0.718,10.06 0.718,10.06 0,0 -1.525,-6.03 -2.219,-9.398 0,-0.003 0,-0.005 0,-0.006 -0.396,-1.771 -1.688,-7.893 -2.688,-16.48 -0.76,-6.538 -1.025,-12.874 -0.948,-17.52 z"
   id="path4726"
   inkscape:connector-curvature="0"
   style="fill:#2969ab;fill-opacity:1" />
	</g>
	<g
   id="tibialis-posterior"
   class="group"
   style="fill:#2969ab;fill-opacity:1">
		<path
   d="m 256.72,236.831 c 1.139,-0.695 3.796,-2.276 4.618,-10.629 0.213,-2.162 0.446,-12.297 -0.443,-18.348 -0.632,-4.302 -2.656,-5.884 -3.796,-6.073 -1.137,-0.19 0.063,9.362 -0.974,14.304 -0.371,1.77 -0.702,2.886 -1.561,5.773 -0.778,2.619 -1.135,4.787 -1.325,7.508 -0.154,2.203 0.063,3.163 0.38,4.556 0.113,0.501 1.076,4.145 3.101,2.909 z"
   id="path4729"
   inkscape:connector-curvature="0"
   style="fill:#2969ab;fill-opacity:1" />
		<path
   d="m 246.28,236.831 c -1.139,-0.695 -3.796,-2.276 -4.618,-10.629 -0.213,-2.162 -0.446,-12.297 0.442,-18.348 0.633,-4.302 2.657,-5.884 3.797,-6.073 1.135,-0.19 -0.063,9.362 0.974,14.304 0.371,1.77 0.702,2.886 1.561,5.773 0.777,2.619 1.135,4.787 1.325,7.508 0.154,2.203 -0.063,3.163 -0.38,4.556 -0.113,0.501 -1.076,4.145 -3.101,2.909 z"
   id="path4731"
   inkscape:connector-curvature="0"
   style="fill:#2969ab;fill-opacity:1" />
	</g>
	<g
   id="gluteus-maximus"
   class="group"
   style="fill:#2969ab;fill-opacity:1">
		<path
   d="m 252.101,137.058 c 0,0 0.294,-0.709 0.696,-1.266 1.738,-2.414 6.172,-9.188 7.972,-16.387 0.126,-0.506 0.695,-1.076 1.266,-0.949 0.569,0.127 7.877,0.57 11.514,13.097 0.177,0.605 -0.582,1.131 -0.759,1.202 -1.106,0.443 -2.34,1.519 -2.973,2.911 -0.633,1.392 -2.406,7.268 -1.14,13.603 0.126,0.633 -0.062,2.109 -1.201,1.729 -1.139,-0.38 -14.045,-4.977 -15.375,-13.94 z"
   id="path4734"
   inkscape:connector-curvature="0"
   style="fill:#2969ab;fill-opacity:1" />
		<path
   d="m 250.899,137.058 c 0,0 -0.294,-0.709 -0.696,-1.266 -1.738,-2.414 -6.172,-9.188 -7.972,-16.387 -0.127,-0.506 -0.696,-1.076 -1.265,-0.949 -0.57,0.127 -7.878,0.57 -11.515,13.097 -0.178,0.605 0.582,1.131 0.759,1.202 1.106,0.443 2.34,1.519 2.973,2.911 0.633,1.392 2.406,7.268 1.139,13.603 -0.126,0.633 0.063,2.109 1.202,1.729 1.139,-0.38 14.045,-4.977 15.375,-13.94 z"
   id="path4736"
   inkscape:connector-curvature="0"
   style="fill:#2969ab;fill-opacity:1" />
	</g>
	<g
   id="lavator-scapulae"
   class="group"
   style="fill:#2969ab;fill-opacity:1">
		<path
   d="m 260.326,43.831 c -0.232,-0.232 -2.172,-2.594 -2.699,-4.333 -0.555,-1.828 -1.498,-6.644 -1.709,-11.706 0,0 -0.992,-0.642 -1.813,-0.97 -0.902,-0.357 -2.062,-0.372 -2.478,-0.363 -0.417,-0.009 -1.576,0.006 -2.479,0.363 -0.821,0.328 -1.812,0.97 -1.812,0.97 -0.212,5.062 -1.155,9.877 -1.71,11.706 -0.526,1.74 -2.466,4.102 -2.698,4.333 0,0 -1.835,2.225 -6.263,4.166 0,0 8.309,0.084 9.405,-0.211 1.096,-0.295 3.838,-1.567 4.766,-6.833 0.423,-2.398 0.659,-5.203 0.791,-7.703 0.131,2.5 0.366,5.305 0.79,7.703 0.929,5.266 3.67,6.538 4.766,6.833 1.097,0.295 9.407,0.211 9.407,0.211 -4.431,-1.941 -6.264,-4.166 -6.264,-4.166 z"
   id="path4739"
   inkscape:connector-curvature="0"
   style="fill:#2969ab;fill-opacity:1" />
	</g>
	<g
   id="latissimus-dorsi"
   class="group"
   style="fill:#2969ab;fill-opacity:1">
		<path
   d="m 255.538,84.439 c 1.216,-2.596 5.863,-9.069 5.863,-9.069 0.066,-0.099 0.316,-0.295 0.548,-0.295 0.357,10e-4 0.846,0.277 1.897,0.591 1.562,0.463 5.315,0.421 7.467,-0.169 2.547,-0.7 5.547,-2.208 5.684,-2.01 0.137,0.196 1.107,7.409 -1.171,13.061 -2.276,5.652 -6.074,8.352 -10.038,7.888 -3.966,-0.464 -10.377,-7.858 -10.377,-8.942 0,-0.167 -0.064,-0.647 0.127,-1.055 z"
   id="path4742"
   inkscape:connector-curvature="0"
   style="fill:#2969ab;fill-opacity:1" />
		<path
   d="m 263.173,94.604 c 0,0 2.996,4.499 4.556,13.856 0.063,0.379 6.664,-3.396 8.267,-20.52 0,0 -2.51,6.537 -5.99,7.423 -1.785,0.455 -4.557,0.507 -6.833,-0.759 z"
   id="path4744"
   inkscape:connector-curvature="0"
   style="fill:#2969ab;fill-opacity:1" />
		<path
   d="m 247.462,84.439 c -1.215,-2.596 -5.864,-9.069 -5.864,-9.069 -0.064,-0.099 -0.315,-0.295 -0.547,-0.295 -0.357,10e-4 -0.846,0.277 -1.899,0.591 -1.56,0.463 -5.313,0.421 -7.465,-0.169 -2.548,-0.7 -5.547,-2.208 -5.684,-2.01 -0.137,0.196 -1.106,7.409 1.171,13.061 2.278,5.652 6.074,8.352 10.038,7.888 3.965,-0.464 10.377,-7.858 10.377,-8.942 0,-0.167 0.064,-0.647 -0.127,-1.055 z"
   id="path4746"
   inkscape:connector-curvature="0"
   style="fill:#2969ab;fill-opacity:1" />
		<path
   d="m 239.827,94.604 c 0,0 -2.996,4.499 -4.555,13.856 -0.064,0.379 -6.665,-3.396 -8.268,-20.52 0,0 2.509,6.537 5.99,7.423 1.786,0.455 4.557,0.507 6.833,-0.759 z"
   id="path4748"
   inkscape:connector-curvature="0"
   style="fill:#2969ab;fill-opacity:1" />
		<path
   d="m 252.342,132.996 c 0,0 -0.271,0.025 -0.273,-0.146 0,-0.253 0.112,-39.917 0.273,-40.587 0.285,-1.202 1.299,-4.492 1.72,-4.745 0.422,-0.253 1.076,0.253 1.434,0.59 0.412,0.388 4.81,5.483 5.4,5.99 0.59,0.506 5.146,6.243 5.229,14.51 0,0 -1.013,0.253 -1.687,0.506 -0.273,0.102 -2.015,1.117 -3.702,4.66 -1.229,2.581 -2.564,7.162 -3.732,10.503 -1.993,5.694 -4.662,8.719 -4.662,8.719 z"
   id="path4750"
   inkscape:connector-curvature="0"
   style="fill:#2969ab;fill-opacity:1" />
		<path
   d="m 250.658,132.996 c 0,0 0.271,0.025 0.273,-0.146 0,-0.253 -0.112,-39.917 -0.273,-40.587 -0.285,-1.202 -1.298,-4.492 -1.72,-4.745 -0.423,-0.253 -1.076,0.253 -1.435,0.59 -0.412,0.388 -4.809,5.483 -5.399,5.99 -0.59,0.506 -5.146,6.243 -5.229,14.51 0,0 1.013,0.253 1.688,0.506 0.272,0.102 2.014,1.117 3.701,4.66 1.229,2.581 2.564,7.162 3.732,10.503 1.993,5.694 4.662,8.719 4.662,8.719 z"
   id="path4752"
   inkscape:connector-curvature="0"
   style="fill:#2969ab;fill-opacity:1" />
	</g>
	<g
   id="trapezius"
   class="group"
   style="fill:#2969ab;fill-opacity:1">
		<path
   d="m 252.101,89.711 c 0,0 -0.4,-28.365 0.612,-31.591 1.011,-3.227 1.812,-8.078 5.482,-8.774 2.176,-0.412 5.352,-0.673 8.583,-0.295 2.222,0.259 4.724,1.16 6.939,1.855 0,0 -4.261,0.184 -5.736,7.086 -0.474,2.218 -0.918,4.675 -1.729,7.002 -0.994,2.849 -3.092,5.755 -5.146,8.646 -3.969,5.584 -8.406,10.152 -9.005,16.071 z"
   id="path4755"
   inkscape:connector-curvature="0"
   style="fill:#2969ab;fill-opacity:1" />
		<path
   d="m 250.899,89.711 c 0,0 0.4,-28.365 -0.612,-31.591 -1.012,-3.227 -1.812,-8.078 -5.482,-8.774 -2.174,-0.412 -5.352,-0.673 -8.584,-0.295 -2.221,0.259 -4.722,1.16 -6.938,1.855 0,0 4.261,0.184 5.736,7.086 0.474,2.218 0.919,4.675 1.729,7.002 0.994,2.849 3.091,5.755 5.147,8.646 3.967,5.584 8.405,10.152 9.004,16.071 z"
   id="path4757"
   inkscape:connector-curvature="0"
   style="fill:#2969ab;fill-opacity:1" />
	</g>
</g>
<path
   style="fill:#2969ab;fill-opacity:1"
   inkscape:connector-curvature="0"
   id="path4760"
   d="m 135.39082,139.148 c -0.211,-0.59 -0.461,-1.359 -0.763,-2.099 -0.131,-0.466 -0.532,-1.85 -0.82,-2.477 -0.347,-0.759 -3.395,-11.283 -3.554,-11.884 -0.157,-0.601 0.033,-2.499 -0.727,-1.74 -0.668,0.669 -0.748,11.053 -0.758,13.519 -1.282,-5.483 -0.483,-13.734 -0.677,-17.167 -0.211,-3.754 -3.374,-7.719 -3.88,-8.14 -0.507,-0.422 -0.97,-0.422 -1.012,-0.296 -1.876,5.65 3.979,26.438 4.851,29.357 -0.252,0.085 -8.476,-27.441 -6.001,-30.337 l 0.696,-0.38 c -0.601,-0.791 -2.594,-2.278 -2.721,-2.024 -0.127,0.253 -0.665,1.17 -0.949,2.625 -0.061,0.311 -0.412,-0.633 -0.284,-1.613 0.09,-0.702 0.79,-2.183 0.537,-2.246 -0.253,-0.063 -0.421,-0.338 -1.012,-0.253 -0.886,0.127 -2.404,1.107 -2.404,1.613 0,1.582 1.835,3.575 2.53,4.777 0.658,1.136 6.961,24.573 8.004,28.548 -0.106,0.057 -1.63,-4.697 -2.446,-7.754 -2.277,-8.521 -3.333,-11.727 -4.165,-14.563 -0.65,-2.215 -1.424,-4.851 -2.056,-5.915 -1.146,-1.925 -3.017,-4.547 -3.67,-5.251 -0.729,-0.785 -2.136,-3.354 -2.306,-2.358 -0.071,0.417 -0.118,0.905 -0.166,1.399 -0.166,1.783 1.347,4.631 1.483,4.878 1.133,2.028 1.6,3.198 1.99,4.798 1.019,4.178 4.954,13.265 6.397,16.308 1.141,2.405 3.914,8.202 5.064,10.659 0.507,-0.084 3.516,-1.628 5.145,-1.94 1.701,-0.328 3.342,0.606 3.674,-0.044 z" /><path
   style="fill:#2969ab;fill-opacity:1"
   inkscape:connector-curvature="0"
   id="path4762"
   d="m 23.047824,139.148 c 0.209,-0.59 0.46,-1.359 0.762,-2.099 0.131,-0.466 0.531,-1.85 0.819,-2.477 0.348,-0.759 3.396,-11.283 3.553,-11.884 0.159,-0.601 -0.03,-2.499 0.729,-1.74 0.668,0.669 0.748,11.053 0.757,13.519 1.281,-5.483 0.483,-13.734 0.677,-17.167 0.212,-3.754 3.375,-7.719 3.881,-8.14 0.507,-0.422 0.97,-0.422 1.013,-0.296 1.875,5.65 -3.979,26.438 -4.852,29.357 0.252,0.085 8.476,-27.441 6.001,-30.337 l -0.696,-0.38 c 0.601,-0.791 2.594,-2.278 2.721,-2.024 0.127,0.253 0.664,1.17 0.949,2.625 0.061,0.311 0.412,-0.633 0.285,-1.613 -0.092,-0.702 -0.791,-2.183 -0.538,-2.246 0.253,-0.063 0.421,-0.338 1.012,-0.253 0.886,0.127 2.404,1.107 2.404,1.613 0,1.582 -1.835,3.575 -2.53,4.777 -0.658,1.136 -6.962,24.573 -8.004,28.548 0.105,0.057 1.63,-4.697 2.446,-7.754 2.277,-8.521 3.333,-11.727 4.165,-14.563 0.651,-2.215 1.425,-4.851 2.058,-5.915 1.144,-1.925 3.016,-4.547 3.669,-5.251 0.729,-0.785 2.136,-3.354 2.305,-2.358 0.071,0.417 0.118,0.905 0.164,1.399 0.168,1.783 -1.346,4.631 -1.481,4.878 -1.133,2.028 -1.602,3.198 -1.99,4.798 -1.019,4.178 -4.954,13.265 -6.397,16.308 -1.142,2.405 -3.914,8.202 -5.064,10.659 -0.507,-0.084 -3.516,-1.628 -5.145,-1.94 -1.701,-0.328 -3.342,0.606 -3.673,-0.044 z" />
<path
   style="fill:#2969ab;fill-opacity:1"
   inkscape:connector-curvature="0"
   id="path4777"
   d="m 117.33682,76.153 c 0,0 0.312,-7.886 -3.491,-12.451 -3.047,-3.655 -7.907,-5.863 -9.994,-6.568 -0.519,-0.175 -1.215,-0.163 -1.319,-0.151 -0.24,0.026 -2.304,0.633 -3.795996,2.236 -1.774,1.907 -2.602,5.058 -1.982,5.356 2.225,1.072 3.951996,2.952 7.170996,6.58 5.959,6.72 12.067,5.128 13.411,4.998 z" /><path
   style="fill:#2969ab;fill-opacity:1"
   inkscape:connector-curvature="0"
   id="path4779"
   d="m 41.099824,76.153 c 0,0 -0.311,-7.886 3.492,-12.451 3.047,-3.655 7.908,-5.863 9.994,-6.568 0.519,-0.175 1.213,-0.163 1.319,-0.151 0.24,0.026 2.305,0.633 3.796,2.236 1.774,1.907 2.602,5.058 1.982,5.356 -2.224,1.072 -3.952,2.952 -7.171,6.58 -5.96,6.72 -12.068,5.128 -13.412,4.998 z" />
<path
   style="fill:#2969ab;fill-opacity:1"
   inkscape:connector-curvature="0"
   id="path4786"
   d="m 89.941824,235.969 c -0.499,-1.751 0.34,-6.109 0.317,-10.629 -0.042,-8.457 -0.768,-13.673 -0.126,-16.956 0.213,-1.094 1.31,-2.441 1.455,-2.404 0.506,0.127 0.584,0.576 0.759,1.013 3.349,8.372 5.119,17.108 5.059,22.967 -0.062,5.882 -2.981,7.096 -5.122,7.274 -0.759,0.065 -2.088,-0.379 -2.342,-1.265 z" /><path
   style="fill:#2969ab;fill-opacity:1"
   inkscape:connector-curvature="0"
   id="path4788"
   d="m 68.494824,235.969 c 0.5,-1.751 -0.339,-6.109 -0.316,-10.629 0.042,-8.457 0.768,-13.673 0.128,-16.956 -0.215,-1.094 -1.312,-2.441 -1.457,-2.404 -0.506,0.127 -0.584,0.576 -0.759,1.013 -3.349,8.372 -5.119,17.108 -5.059,22.967 0.062,5.882 2.98,7.096 5.123,7.274 0.759,0.065 2.087,-0.379 2.34,-1.265 z" />
</svg>